<svg width="39" height="38" viewBox="0 0 39 38" fill="none" xmlns="http://www.w3.org/2000/svg">
<path d="M4.74324 14.2298V9.48657H0V14.2298H4.74324Z" fill="black"/>
<path d="M9.48738 9.48641V4.74316H4.74414V9.48641H9.48738Z" fill="black"/>
<path d="M4.74324 18.973V14.2297H0V18.973H4.74324Z" fill="black"/>
<path d="M4.74324 23.7161V18.9729H0V23.7161H4.74324Z" fill="black"/>
<path d="M4.74324 28.4596V23.7163H0V28.4596H4.74324Z" fill="black"/>
<path d="M9.48738 14.2298V9.48657H4.74414V14.2298H9.48738Z" fill="black"/>
<path d="M9.48738 18.973V14.2297H4.74414V18.973H9.48738Z" fill="black"/>
<path d="M9.48738 23.7161V18.9729H4.74414V23.7161H9.48738Z" fill="black"/>
<path d="M9.48738 28.4596V23.7163H4.74414V28.4596H9.48738Z" fill="black"/>
<path d="M33.2022 14.2298V9.48657H28.459V14.2298H33.2022Z" fill="black"/>
<path d="M33.2022 18.973V14.2297H28.459V18.973H33.2022Z" fill="black"/>
<path d="M33.2022 23.7161V18.9729H28.459V23.7161H33.2022Z" fill="black"/>
<path d="M33.2022 28.4596V23.7163H28.459V28.4596H33.2022Z" fill="black"/>
<path d="M28.46 9.48641V4.74316L23.7168 4.74316V9.48641H28.46Z" fill="black"/>
<path d="M23.7159 9.48641V4.74316L18.9727 4.74316V9.48641H23.7159Z" fill="black"/>
<path d="M18.9737 9.48641V4.74316L14.2305 4.74316V9.48641H18.9737Z" fill="black"/>
<path d="M14.2296 9.48641V4.74316L9.48633 4.74316V9.48641H14.2296Z" fill="black"/>
<path d="M14.2296 14.2298V9.48657H9.48633V14.2298H14.2296Z" fill="black"/>
<path d="M28.46 14.2298V9.48657H23.7168V14.2298H28.46Z" fill="black"/>
<path d="M14.2296 28.4596V23.7163H9.48633V28.4596H14.2296Z" fill="black"/>
<path d="M28.46 28.4596V23.7163H23.7168V28.4596H28.46Z" fill="black"/>
<path d="M28.46 33.2027V28.4595H23.7168V33.2027H28.46Z" fill="black"/>
<path d="M23.7159 33.2027V28.4595H18.9727V33.2027H23.7159Z" fill="black"/>
<path d="M18.9737 33.2027V28.4595H14.2305V33.2027H18.9737Z" fill="black"/>
<path d="M14.2296 33.2027V28.4595H9.48633V33.2027H14.2296Z" fill="black"/>
<path d="M9.48738 33.2027V28.4595H4.74414V33.2027H9.48738Z" fill="black"/>
<path d="M14.2296 37.9459V33.2026H9.48633V37.9459H14.2296Z" fill="black"/>
<path d="M23.7159 37.9459V33.2026H18.9727V37.9459H23.7159Z" fill="black"/>
<path d="M28.46 37.9459V33.2026H23.7168V37.9459H28.46Z" fill="black"/>
<path d="M33.2022 33.2027V28.4595H28.459V33.2027H33.2022Z" fill="black"/>
<path d="M37.9464 28.4596V23.7163H33.2031V28.4596H37.9464Z" fill="black"/>
<path d="M37.9464 23.7161V18.9729H33.2031V23.7161H37.9464Z" fill="black"/>
<path d="M37.9464 18.973V14.2297H33.2031V18.973H37.9464Z" fill="black"/>
<path d="M37.9464 14.2298V9.48657H33.2031V14.2298H37.9464Z" fill="black"/>
<path d="M33.2022 9.48641V4.74316H28.459V9.48641H33.2022Z" fill="black"/>
<path d="M28.46 4.74324V0H23.7168V4.74324H28.46Z" fill="black"/>
<path d="M23.7159 4.74324V0H18.9727V4.74324H23.7159Z" fill="black"/>
<path d="M18.9737 4.74324V0H14.2305V4.74324H18.9737Z" fill="black"/>
<path d="M14.2296 4.74324V0H9.48633V4.74324H14.2296Z" fill="black"/>
<path d="M18.9737 37.9459V33.2026H14.2305V37.9459H18.9737Z" fill="black"/>
<path d="M5.79793 14.2298V9.48657H1.05469V14.2298H5.79793Z" fill="#FF0000"/>
<path d="M10.5421 9.48641V4.74316H5.79883V9.48641H10.5421Z" fill="#FF0000"/>
<path d="M5.79793 18.973V14.2297H1.05469V18.973H5.79793Z" fill="#FF0000"/>
<path d="M5.79793 23.7161V18.9729H1.05469V23.7161H5.79793Z" fill="#FF0000"/>
<path d="M5.79793 28.4596V23.7163H1.05469V28.4596H5.79793Z" fill="#FF0000"/>
<path d="M10.5421 14.2298V9.48657H5.79883V14.2298H10.5421Z" fill="#FFB4B4"/>
<path d="M10.5421 18.973V14.2297H5.79883V18.973H10.5421Z" fill="#FFB4B4"/>
<path d="M10.5421 23.7161V18.9729H5.79883V23.7161H10.5421Z" fill="#FFB4B4"/>
<path d="M10.5421 28.4596V23.7163H5.79883V28.4596H10.5421Z" fill="#FFB4B4"/>
<path d="M34.2569 14.2298V9.48657H29.5137V14.2298H34.2569Z" fill="#FFB4B4"/>
<path d="M34.2569 18.973V14.2297H29.5137V18.973H34.2569Z" fill="#FFB4B4"/>
<path d="M34.2569 23.7161V18.9729H29.5137V23.7161H34.2569Z" fill="#FFB4B4"/>
<path d="M34.2569 28.4596V23.7163H29.5137V28.4596H34.2569Z" fill="#FFB4B4"/>
<path d="M29.5147 9.48641V4.74316L24.7715 4.74316V9.48641H29.5147Z" fill="#FFB4B4"/>
<path d="M24.7706 9.48641V4.74316L20.0273 4.74316V9.48641H24.7706Z" fill="#FFB4B4"/>
<path d="M20.0284 9.48641V4.74316L15.2852 4.74316V9.48641H20.0284Z" fill="#FFB4B4"/>
<path d="M15.2843 9.48641V4.74316L10.541 4.74316V9.48641H15.2843Z" fill="#FFB4B4"/>
<path d="M15.2843 14.2298V9.48657H10.541V14.2298H15.2843Z" fill="#FFB4B4"/>
<path d="M29.5147 14.2298V9.48657H24.7715V14.2298H29.5147Z" fill="#FFB4B4"/>
<path d="M15.2843 28.4596V23.7163H10.541V28.4596H15.2843Z" fill="#FFB4B4"/>
<path d="M29.5147 28.4596V23.7163H24.7715V28.4596H29.5147Z" fill="#FFB4B4"/>
<path d="M29.5147 33.2027V28.4595H24.7715V33.2027H29.5147Z" fill="#FFB4B4"/>
<path d="M24.7706 33.2027V28.4595H20.0273V33.2027H24.7706Z" fill="#FFB4B4"/>
<path d="M20.0284 33.2027V28.4595H15.2852V33.2027H20.0284Z" fill="#FFB4B4"/>
<path d="M15.2843 33.2027V28.4595H10.541V33.2027H15.2843Z" fill="#FFB4B4"/>
<path d="M10.5421 33.2027V28.4595H5.79883V33.2027H10.5421Z" fill="#FF0000"/>
<path d="M15.2843 37.9459V33.2026H10.541V37.9459H15.2843Z" fill="#FF0000"/>
<path d="M24.7706 37.9459V33.2026H20.0273V37.9459H24.7706Z" fill="#FF0000"/>
<path d="M29.5147 37.9459V33.2026H24.7715V37.9459H29.5147Z" fill="#FF0000"/>
<path d="M34.2569 33.2027V28.4595H29.5137V33.2027H34.2569Z" fill="#FF0000"/>
<path d="M39.0011 28.4596V23.7163H34.2578V28.4596H39.0011Z" fill="#FF0000"/>
<path d="M39.0011 23.7161V18.9729H34.2578V23.7161H39.0011Z" fill="#FF0000"/>
<path d="M39.0011 18.973V14.2297H34.2578V18.973H39.0011Z" fill="#FF0000"/>
<path d="M39.0011 14.2298V9.48657H34.2578V14.2298H39.0011Z" fill="#FF0000"/>
<path d="M34.2569 9.48641V4.74316H29.5137V9.48641H34.2569Z" fill="#FF0000"/>
<path d="M29.5147 4.74324V0H24.7715V4.74324H29.5147Z" fill="#FF0000"/>
<path d="M24.7706 4.74324V0H20.0273V4.74324H24.7706Z" fill="#FF0000"/>
<path d="M20.0284 4.74324V0H15.2852V4.74324H20.0284Z" fill="#FF0000"/>
<path d="M15.2843 4.74324V0H10.541V4.74324H15.2843Z" fill="#FF0000"/>
<path d="M20.0284 37.9459V33.2026H15.2852V37.9459H20.0284Z" fill="#FF0000"/>
</svg>
