<svg width="57" height="328" viewBox="0 0 57 328" fill="none" xmlns="http://www.w3.org/2000/svg">
<path d="M16.9505 218.479L17.9371 218.316L16.9505 218.479ZM8.799 0.966249C8.4403 0.546293 7.80908 0.496634 7.38914 0.855346L0.545727 6.70067C0.125779 7.05935 0.0761264 7.69056 0.434826 8.11051C0.793524 8.53047 1.42474 8.5801 1.84468 8.22142L7.92772 3.02559L13.1236 9.10861C13.4823 9.52856 14.1135 9.57819 14.5334 9.21951C14.9534 8.8608 15.003 8.22959 14.6443 7.80964L8.799 0.966249ZM55.9999 327C56.4065 326.087 56.4079 326.087 56.4093 326.088C56.4096 326.088 56.4108 326.088 56.4114 326.089C56.4127 326.089 56.4137 326.09 56.4142 326.09C56.4154 326.091 56.4152 326.09 56.4136 326.09C56.4104 326.088 56.4017 326.084 56.3875 326.077C56.3592 326.062 56.3093 326.036 56.2385 325.995C56.0971 325.914 55.8722 325.775 55.5711 325.559C54.969 325.128 54.0609 324.388 52.9047 323.185C50.5916 320.777 47.2865 316.517 43.456 309.167C35.7916 294.462 26.0529 267.444 17.9371 218.316L15.9639 218.642C24.0989 267.887 33.8849 295.13 41.6825 310.092C45.583 317.576 48.9932 322.001 51.4627 324.57C52.6977 325.856 53.6977 326.677 54.4059 327.185C54.76 327.438 55.0408 327.614 55.2412 327.729C55.3414 327.787 55.4215 327.829 55.4805 327.859C55.51 327.874 55.5342 327.886 55.553 327.895C55.5625 327.9 55.5705 327.903 55.5772 327.906C55.5806 327.908 55.5836 327.909 55.5863 327.911C55.5876 327.911 55.5894 327.912 55.59 327.912C55.5917 327.913 55.5933 327.914 55.9999 327ZM17.9371 218.316C1.70533 120.057 6.81081 29.977 9.03554 1.69414L7.04169 1.53729C4.81144 29.8903 -0.305862 120.154 15.9639 218.642L17.9371 218.316Z" fill="#787878"/>
</svg>
