<svg width="25" height="22" viewBox="0 0 25 22" fill="none" xmlns="http://www.w3.org/2000/svg">
<path d="M8.96661 6.05277V3.52645H6.58984V6.05277H8.96661Z" fill="black" stroke="black" stroke-width="0.741394"/>
<path d="M8.96661 18.474V15.9477H6.58984V18.474H8.96661Z" fill="black" stroke="black" stroke-width="0.741394"/>
<path d="M11.4471 21V18.4736H9.07031V21H11.4471Z" fill="black" stroke="black" stroke-width="0.741394"/>
<path d="M16.407 21V18.4736H14.0303V21H16.407Z" fill="black" stroke="black" stroke-width="0.741394"/>
<path d="M18.8865 21V18.4736H16.5098V21H18.8865Z" fill="black" stroke="black" stroke-width="0.741394"/>
<path d="M21.16 18.4741V15.9478H18.7832V18.4741H21.16Z" fill="black" stroke="black" stroke-width="0.741394"/>
<path d="M23.7117 15.9472V13.4209H21.335V15.9472H23.7117Z" fill="black" stroke="black" stroke-width="0.741394"/>
<path d="M23.7117 13.4213V10.895H21.335V13.4213H23.7117Z" fill="black" stroke="black" stroke-width="0.741394"/>
<path d="M23.7117 10.895V8.36865H21.335V10.895H23.7117Z" fill="black" stroke="black" stroke-width="0.741394"/>
<path d="M23.7117 8.36836V5.84204H21.335V8.36836H23.7117Z" fill="black" stroke="black" stroke-width="0.741394"/>
<path d="M21.16 6.05269V3.52637H18.7832V6.05269H21.16Z" fill="black" stroke="black" stroke-width="0.741394"/>
<path d="M18.6795 3.52632V1H16.3027V3.52632H18.6795Z" fill="black" stroke="black" stroke-width="0.741394"/>
<path d="M16.201 3.52632V1H13.8242V3.52632H16.201Z" fill="black" stroke="black" stroke-width="0.741394"/>
<path d="M13.9266 3.52632V1H11.5498V3.52632H13.9266Z" fill="black" stroke="black" stroke-width="0.741394"/>
<path d="M11.4471 3.52632V1H9.07031V3.52632H11.4471Z" fill="black" stroke="black" stroke-width="0.741394"/>
<path d="M13.9266 21V18.4736H11.5498V21H13.9266Z" fill="black" stroke="black" stroke-width="0.741394"/>
<path d="M0.84082 11.0002H8.0286" stroke="black" stroke-width="1.48279"/>
<path d="M4.43457 7.66675V14.3334" stroke="black" stroke-width="1.48279"/>
<path d="M4.43457 14.3337V14.6671" stroke="black" stroke-width="1.48279"/>
<path d="M4.43457 7.66659V7.33325" stroke="black" stroke-width="1.48279"/>
</svg>
