<svg width="20" height="20" viewBox="0 0 20 20" fill="none" xmlns="http://www.w3.org/2000/svg">
<path d="M14.9995 18.3337H6.6665V16.6667H14.9995V18.3337ZM6.6665 16.6667H5.00049V14.9998H6.6665V16.6667ZM16.6665 16.6667H15.0005V14.9998H16.6665V16.6667ZM5.00049 14.9998H3.3335V13.3337H5.00049V14.9998ZM18.3335 14.9998H16.6665V11.6667H15.0005V9.99976H16.6665V8.33374H18.3335V14.9998ZM3.3335 13.3337H1.6665V4.99976H3.3335V13.3337ZM15.0005 13.3337H10.0005V11.6667H15.0005V13.3337ZM10.0005 11.6667H8.3335V9.99976H10.0005V11.6667ZM8.3335 9.99976H6.6665V4.99976H8.3335V9.99976ZM5.00049 4.99976H3.3335V3.33374H5.00049V4.99976ZM11.6665 3.33374H10.0005V4.99976H8.3335V3.33374H5.00049V1.66675H11.6665V3.33374Z" fill="black"/>
</svg>
