<svg width="24" height="22" viewBox="0 0 24 22" fill="none" xmlns="http://www.w3.org/2000/svg">
<path d="M8.12481 6.0526V3.52629H5.74805V6.0526H8.12481Z" fill="black" stroke="black"/>
<path d="M8.12481 18.4739V15.9476H5.74805V18.4739H8.12481Z" fill="black" stroke="black"/>
<path d="M10.6043 21V18.4737H8.22754V21H10.6043Z" fill="black" stroke="black"/>
<path d="M15.5643 20.9999V18.4736H13.1875V20.9999H15.5643Z" fill="black" stroke="black"/>
<path d="M18.0457 21V18.4737H15.6689V21H18.0457Z" fill="black" stroke="black"/>
<path d="M20.3182 18.4739V15.9476H17.9414V18.4739H20.3182Z" fill="black" stroke="black"/>
<path d="M22.8709 15.9472V13.4209H20.4941V15.9472H22.8709Z" fill="black" stroke="black"/>
<path d="M22.8709 13.4211V10.8948H20.4941V13.4211H22.8709Z" fill="black" stroke="black"/>
<path d="M22.8709 10.8948V8.36853H20.4941V10.8948H22.8709Z" fill="black" stroke="black"/>
<path d="M22.8709 8.36837V5.84205H20.4941V8.36837H22.8709Z" fill="black" stroke="black"/>
<path d="M20.3182 6.0526V3.52629H17.9414V6.0526H20.3182Z" fill="black" stroke="black"/>
<path d="M17.8387 3.52631V1H15.4619V3.52631H17.8387Z" fill="black" stroke="black"/>
<path d="M15.3592 3.52631V1H12.9824V3.52631H15.3592Z" fill="black" stroke="black"/>
<path d="M13.0848 3.52631V1H10.708V3.52631H13.0848Z" fill="black" stroke="black"/>
<path d="M10.6043 3.52631V1H8.22754V3.52631H10.6043Z" fill="black" stroke="black"/>
<path d="M13.0848 21V18.4737H10.708V21H13.0848Z" fill="black" stroke="black"/>
<path d="M0 11H7.18775" stroke="black" stroke-width="2"/>
</svg>
