<svg width="20" height="20" viewBox="0 0 20 20" fill="none" xmlns="http://www.w3.org/2000/svg">
<path d="M9.1665 13.3336L10.8335 13.3336L10.8335 11.6666L9.1665 11.6666L9.1665 13.3336ZM10.8335 11.6666L12.4995 11.6666L12.4995 9.99963L10.8335 9.99963L10.8335 11.6666ZM7.50049 11.6666L9.1665 11.6666L9.1665 9.99963L7.50049 9.99963L7.50049 11.6666ZM12.5005 9.99963L14.1665 9.99963L14.1665 8.33362L12.5005 8.33362L12.5005 9.99963ZM5.8335 9.99963L7.49951 9.99963L7.49951 8.33362L5.8335 8.33362L5.8335 9.99963ZM14.1665 8.33362L15.8335 8.33362L15.8335 6.66663L14.1665 6.66663L14.1665 8.33362ZM4.1665 8.33362L5.8335 8.33362L5.8335 6.66663L4.1665 6.66663L4.1665 8.33362Z" fill="black"/>
</svg>
