<svg width="20" height="20" viewBox="0 0 20 20" fill="none" xmlns="http://www.w3.org/2000/svg">
<path d="M3.3335 16.6667H6.6665V18.3336H1.6665V13.3336H3.3335V16.6667ZM8.3335 16.6667H6.6665V14.9997H8.3335V16.6667ZM6.6665 14.9997H5.00049V13.3336H6.6665V14.9997ZM9.99951 14.9997H8.3335V13.3336H9.99951V14.9997ZM4.99951 13.3336H3.3335V11.6667H4.99951V13.3336ZM11.6665 13.3336H10.0005V11.6667H11.6665V13.3336ZM6.6665 11.6667H5.00049V9.99966H6.6665V11.6667ZM13.3335 11.6667H11.6665V9.99966H13.3335V11.6667ZM8.3335 9.99966H6.6665V8.33365H8.3335V9.99966ZM14.9995 9.99966H13.3335V8.33365H14.9995V9.99966ZM9.99951 8.33365H8.3335V6.66666H9.99951V8.33365ZM16.6665 4.99966H18.3335V6.66666H16.6665V8.33365H15.0005V3.33365H16.6665V4.99966ZM11.6665 6.66666H10.0005V4.99966H11.6665V6.66666ZM14.9995 6.66666H13.3335V4.99966H11.6665V3.33365H13.3335V1.66666H14.9995V6.66666Z" fill="black"/>
</svg>
