<svg width="22" height="22" viewBox="0 0 22 22" fill="none" xmlns="http://www.w3.org/2000/svg">
<rect x="10.0625" y="4.69016" width="1.79319" height="1.64039" fill="#303030"/>
<rect x="11.8564" y="4.69016" width="1.79319" height="1.64039" fill="#303030"/>
<rect x="10.0625" y="4.69016" width="1.79319" height="1.64039" fill="#303030"/>
<rect x="8.26953" y="4.69016" width="1.79319" height="1.64039" fill="#303030"/>
<rect x="6.51855" y="11.2272" width="1.79319" height="1.64039" transform="rotate(-180 6.51855 11.2272)" fill="#303030"/>
<rect x="6.53516" y="9.58685" width="1.79319" height="1.64039" transform="rotate(-180 6.53516 9.58685)" fill="#303030"/>
<rect x="8.26953" y="14.4591" width="1.79319" height="1.64039" transform="rotate(-180 8.26953 14.4591)" fill="#303030"/>
<rect x="8.29688" y="7.94644" width="1.79319" height="1.64039" transform="rotate(-180 8.29688 7.94644)" fill="#303030"/>
<rect x="15.4424" y="14.4591" width="1.79319" height="1.64039" transform="rotate(-180 15.4424 14.4591)" fill="#303030"/>
<rect x="15.4697" y="7.94644" width="1.79319" height="1.64039" transform="rotate(-180 15.4697 7.94644)" fill="#303030"/>
<rect x="6.51855" y="11.2272" width="1.79319" height="1.64039" transform="rotate(-180 6.51855 11.2272)" fill="#303030"/>
<rect x="6.53125" y="12.8675" width="1.79319" height="1.64039" transform="rotate(-180 6.53125 12.8675)" fill="#303030"/>
<rect x="17.252" y="11.2272" width="1.79319" height="1.64039" transform="rotate(-180 17.252 11.2272)" fill="#303030"/>
<rect x="17.2676" y="9.58685" width="1.79319" height="1.64039" transform="rotate(-180 17.2676 9.58685)" fill="#303030"/>
<rect x="17.252" y="11.2272" width="1.79319" height="1.64039" transform="rotate(-180 17.252 11.2272)" fill="#303030"/>
<rect x="17.2637" y="12.8675" width="1.79319" height="1.64039" transform="rotate(-180 17.2637 12.8675)" fill="#303030"/>
<rect x="11.8564" y="16.0995" width="1.79319" height="1.64039" fill="#303030"/>
<rect x="11.8564" y="14.4591" width="1.79319" height="1.64039" fill="#303030"/>
<rect x="8.26953" y="16.0995" width="1.79319" height="1.64039" fill="#303030"/>
<rect x="10.0625" y="16.0995" width="1.79319" height="1.64039" fill="#303030"/>
<rect x="10.0625" y="20.3596" width="1.79319" height="1.64039" fill="#303030"/>
<rect x="11.8564" y="18.2295" width="1.79319" height="1.64039" fill="#303030"/>
<rect x="8.26953" y="18.2295" width="1.79319" height="1.64039" fill="#303030"/>
<rect x="10.0625" y="18.2295" width="1.79319" height="1.64039" fill="#303030"/>
<rect width="1.71849" height="1.71849" transform="matrix(0.737843 -0.674973 0.737843 0.674973 16.791 3.60831)" fill="#303030"/>
<rect width="1.71849" height="1.71849" transform="matrix(0.737843 -0.674973 0.737843 0.674973 15.5234 4.76831)" fill="#303030"/>
<rect width="1.71849" height="1.71849" transform="matrix(0.737843 -0.674973 0.737843 0.674973 16.791 3.60831)" fill="#303030"/>
<rect width="1.71849" height="1.71849" transform="matrix(0.737843 -0.674973 0.737843 0.674973 15.5234 4.76831)" fill="#303030"/>
<rect width="1.71849" height="1.71849" transform="matrix(-0.737843 -0.674973 0.737843 -0.674973 17.2471 16.5203)" fill="#303030"/>
<rect width="1.71849" height="1.71849" transform="matrix(-0.737843 -0.674973 0.737843 -0.674973 18.5146 17.6802)" fill="#303030"/>
<rect x="10.0625" y="1.64041" width="1.64039" height="1.79319" transform="rotate(-90 10.0625 1.64041)" fill="#303030"/>
<rect x="10.0625" y="3.28079" width="1.64039" height="1.79319" transform="rotate(-90 10.0625 3.28079)" fill="#303030"/>
<rect x="20.207" y="9.58685" width="1.79319" height="1.64039" fill="#303030"/>
<rect x="18.4141" y="9.58685" width="1.79319" height="1.64039" fill="#303030"/>
<rect width="1.71849" height="1.71849" transform="matrix(-0.737843 -0.674973 -0.737843 0.674973 5.20996 3.60831)" fill="#303030"/>
<rect width="1.71849" height="1.71849" transform="matrix(-0.737843 -0.674973 -0.737843 0.674973 6.47754 4.76831)" fill="#303030"/>
<rect width="1.71849" height="1.71849" transform="matrix(0.737843 -0.674973 -0.737843 -0.674973 4.75391 16.5203)" fill="#303030"/>
<rect width="1.71849" height="1.71849" transform="matrix(0.737843 -0.674973 -0.737843 -0.674973 3.48633 17.6802)" fill="#303030"/>
<rect width="1.79319" height="1.64039" transform="matrix(-1 0 0 1 1.79297 9.58685)" fill="#303030"/>
<rect width="1.79319" height="1.64039" transform="matrix(-1 0 0 1 3.58594 9.58685)" fill="#303030"/>
<rect x="8.26953" y="14.4591" width="1.79319" height="1.64039" fill="#303030"/>
</svg>
