<svg width="20" height="20" viewBox="0 0 20 20" fill="none" xmlns="http://www.w3.org/2000/svg">
<path d="M2.4249 7.47395V4.94763H0V7.47395H2.4249Z" fill="#303030"/>
<path d="M4.95517 5.05287V2.52655H2.53027V5.05287H4.95517Z" fill="#303030"/>
<path d="M2.4249 9.89466V7.36835H0V9.89466H2.4249Z" fill="#303030"/>
<path d="M2.4249 12.4212V9.8949H0V12.4212H2.4249Z" fill="#303030"/>
<path d="M2.4249 14.9474V12.4211H0V14.9474H2.4249Z" fill="#303030"/>
<path d="M4.95517 17.4739V14.9476H2.53027V17.4739H4.95517Z" fill="#303030"/>
<path d="M7.48593 19.9998V17.4734H5.06104V19.9998H7.48593Z" fill="#303030"/>
<path d="M12.546 19.9998V17.4734H10.1211V19.9998H12.546Z" fill="#303030"/>
<path d="M15.0763 19.9998V17.4734H12.6514V19.9998H15.0763Z" fill="#303030"/>
<path d="M17.3961 17.4739V14.9476H14.9712V17.4739H17.3961Z" fill="#303030"/>
<path d="M20.0001 14.9474V12.4211H17.5752V14.9474H20.0001Z" fill="#303030"/>
<path d="M20.0001 12.4212V9.8949H17.5752V12.4212H20.0001Z" fill="#303030"/>
<path d="M20.0001 9.89466V7.36835H17.5752V9.89466H20.0001Z" fill="#303030"/>
<path d="M20.0001 7.36848V4.84216H17.5752V7.36848H20.0001Z" fill="#303030"/>
<path d="M17.3961 5.05287V2.52655H14.9712V5.05287H17.3961Z" fill="#303030"/>
<path d="M14.8653 2.52632V0H12.4404V2.52632H14.8653Z" fill="#303030"/>
<path d="M12.3351 2.52632V0H9.91016V2.52632H12.3351Z" fill="#303030"/>
<path d="M10.0157 2.52632V0H7.59082V2.52632H10.0157Z" fill="#303030"/>
<path d="M7.48593 2.52632V0H5.06104V2.52632H7.48593Z" fill="#303030"/>
<path d="M10.0157 19.9998V17.4734H7.59082V19.9998H10.0157Z" fill="#303030"/>
<path d="M10.8576 11.1002L7.00644 12.9312L8.89066 9.13326L10.8576 11.1002Z" stroke="#303030"/>
<path d="M8.75179 8.28753L11.4718 11.0075L11.7118 11.2475L14.4673 5.45199L8.75179 8.28753Z" fill="#303030"/>
</svg>
