<svg width="171" height="100" viewBox="0 0 171 100" fill="none" xmlns="http://www.w3.org/2000/svg">
<path d="M56.8767 0H113.753V14.2192H56.8767V0ZM28.4384 28.4384V14.2192H56.8767V28.4384H28.4384ZM14.2192 42.6576V28.4384H28.4384V42.6576H14.2192ZM14.2192 56.8767V42.6576H0V56.8767H14.2192ZM28.4384 71.0959H14.2192V56.8767H28.4384V71.0959ZM56.8767 85.3151H28.4384V71.0959H56.8767V85.3151ZM113.753 85.3151V99.5343H56.8767V85.3151H113.753ZM142.192 71.0959V85.3151H113.753V71.0959H142.192ZM156.411 56.8767V71.0959H142.192V56.8767H156.411ZM156.411 42.6576H170.63V56.8767H156.411V42.6576ZM142.192 28.4384H156.411V42.6576H142.192V28.4384ZM142.192 28.4384V14.2192H113.753V28.4384H142.192ZM71.0959 35.548H99.5343V63.9863H71.0959V35.548Z" fill="black"/>
</svg>
