<svg width="372" height="344" viewBox="0 0 372 344" fill="none" xmlns="http://www.w3.org/2000/svg">
<mask id="path-1-inside-1_479_1801" fill="white">
<path d="M192.246 151.716C188.728 155.233 183.025 155.233 179.508 151.716L154.048 126.257C153.938 126.147 153.751 126.227 153.751 126.382C153.751 137.907 144.408 147.25 132.883 147.25C121.357 147.25 112.014 137.907 112.014 126.382C112.014 114.856 121.357 105.513 132.883 105.513C133.009 105.513 133.084 105.389 133.049 105.284C133.043 105.268 133.034 105.254 133.025 105.24C133.013 105.225 133.001 105.21 132.987 105.196L107.912 80.1221C104.394 76.6044 104.395 70.9006 107.912 67.3828L167.816 7.48049C177.791 -2.49367 193.963 -2.49359 203.938 7.48049L263.842 67.3828C267.359 70.9006 267.36 76.6044 263.842 80.1221L244.926 99.0378C244.918 99.0457 244.909 99.052 244.898 99.0562C244.888 99.0604 244.877 99.0634 244.866 99.0591C244.861 99.057 244.857 99.0539 244.853 99.0498C235.538 89.7362 220.437 89.7369 211.123 99.0508C201.81 108.365 201.809 123.465 211.123 132.778C211.14 132.795 211.141 132.822 211.124 132.839L192.246 151.716ZM191.531 135.332C193.923 132.94 194.464 129.322 193.51 126.076C190.004 114.147 192.808 100.757 201.926 91.165L202.573 90.501C212.197 80.8771 225.922 77.8535 238.124 81.4281C241.387 82.384 245.024 81.8405 247.428 79.4364C250.567 76.2976 250.568 71.2082 247.429 68.0693L195.388 16.0293C190.135 10.7769 181.619 10.777 176.366 16.0293L127.672 64.7226C122.685 69.7099 122.685 77.796 127.672 82.7834L141.557 96.668C141.694 96.8056 141.828 96.9445 141.957 97.085L162.124 117.258C162.283 117.403 162.442 117.552 162.598 117.707L180.223 135.332C183.346 138.455 188.408 138.455 191.531 135.332Z"/>
</mask>
<path d="M192.246 151.716C188.728 155.233 183.025 155.233 179.508 151.716L154.048 126.257C153.938 126.147 153.751 126.227 153.751 126.382C153.751 137.907 144.408 147.25 132.883 147.25C121.357 147.25 112.014 137.907 112.014 126.382C112.014 114.856 121.357 105.513 132.883 105.513C133.009 105.513 133.084 105.389 133.049 105.284C133.043 105.268 133.034 105.254 133.025 105.24C133.013 105.225 133.001 105.21 132.987 105.196L107.912 80.1221C104.394 76.6044 104.395 70.9006 107.912 67.3828L167.816 7.48049C177.791 -2.49367 193.963 -2.49359 203.938 7.48049L263.842 67.3828C267.359 70.9006 267.36 76.6044 263.842 80.1221L244.926 99.0378C244.918 99.0457 244.909 99.052 244.898 99.0562C244.888 99.0604 244.877 99.0634 244.866 99.0591C244.861 99.057 244.857 99.0539 244.853 99.0498C235.538 89.7362 220.437 89.7369 211.123 99.0508C201.81 108.365 201.809 123.465 211.123 132.778C211.14 132.795 211.141 132.822 211.124 132.839L192.246 151.716ZM191.531 135.332C193.923 132.94 194.464 129.322 193.51 126.076C190.004 114.147 192.808 100.757 201.926 91.165L202.573 90.501C212.197 80.8771 225.922 77.8535 238.124 81.4281C241.387 82.384 245.024 81.8405 247.428 79.4364C250.567 76.2976 250.568 71.2082 247.429 68.0693L195.388 16.0293C190.135 10.7769 181.619 10.777 176.366 16.0293L127.672 64.7226C122.685 69.7099 122.685 77.796 127.672 82.7834L141.557 96.668C141.694 96.8056 141.828 96.9445 141.957 97.085L162.124 117.258C162.283 117.403 162.442 117.552 162.598 117.707L180.223 135.332C183.346 138.455 188.408 138.455 191.531 135.332Z" fill="black"/>
<path d="M192.246 151.716L200.794 160.266L200.795 160.265L192.246 151.716ZM179.508 151.716L170.959 160.265L170.96 160.266L179.508 151.716ZM154.048 126.257L162.597 117.707L162.595 117.706L154.048 126.257ZM153.751 126.382L165.841 126.382L165.841 126.382L153.751 126.382ZM132.883 147.25L132.883 159.34L132.883 159.34L132.883 147.25ZM112.014 126.382L99.9233 126.382L99.9233 126.382L112.014 126.382ZM132.883 105.513V117.603H132.892L132.902 117.603L132.883 105.513ZM107.912 80.1221L99.3631 88.6714L99.3631 88.6714L107.912 80.1221ZM107.912 67.3828L99.3631 58.8335L99.3627 58.8338L107.912 67.3828ZM167.816 7.48049L159.267 -1.06895L159.267 -1.06885L167.816 7.48049ZM203.938 7.48049L212.487 -1.06885L212.486 -1.069L203.938 7.48049ZM263.842 67.3828L272.391 58.8337L272.391 58.8335L263.842 67.3828ZM263.842 80.1221L255.293 71.5728L255.293 71.5729L263.842 80.1221ZM244.853 99.0498L236.304 107.599L236.304 107.599L244.853 99.0498ZM211.123 99.0508L202.574 90.5015L202.574 90.5019L211.123 99.0508ZM211.123 132.778L202.574 141.328L202.58 141.334L211.123 132.778ZM211.124 132.839L219.673 141.388L219.676 141.386L211.124 132.839ZM201.926 91.165L193.269 82.7247L193.216 82.7796L193.163 82.8352L201.926 91.165ZM202.573 90.501L194.024 81.9517L193.97 82.0058L193.917 82.0607L202.573 90.501ZM195.388 16.0293L203.937 7.48005L203.936 7.47952L195.388 16.0293ZM176.366 16.0293L167.818 7.47961L167.817 7.48005L176.366 16.0293ZM141.557 96.668L133.007 105.217L133.008 105.217L141.557 96.668ZM141.957 97.085L133.06 105.272L133.23 105.456L133.407 105.633L141.957 97.085ZM162.124 117.258L153.574 125.806L153.775 126.008L153.986 126.2L162.124 117.258ZM162.598 117.707L171.147 109.158L171.147 109.158L162.598 117.707ZM191.531 135.332L182.982 126.783L191.531 135.332ZM127.672 64.7226L136.221 73.2719L127.672 64.7226ZM247.429 68.0693L255.978 59.52L247.429 68.0693ZM238.124 81.4281L241.523 69.8254L238.124 81.4281ZM193.51 126.076L181.91 129.485L193.51 126.076ZM244.898 99.0562L249.449 110.258L244.898 99.0562ZM244.866 99.0591L240.209 110.216L244.866 99.0591ZM244.926 99.0378L236.377 90.4886L244.926 99.0378ZM133.025 105.24L142.878 98.2338L133.025 105.24ZM132.987 105.196L124.438 113.746L132.987 105.196ZM133.049 105.284L121.595 109.156L133.049 105.284ZM192.246 151.716L183.698 143.166C184.902 141.962 186.852 141.962 188.056 143.166L179.508 151.716L170.96 160.266C179.199 168.503 192.555 168.503 200.794 160.266L192.246 151.716ZM179.508 151.716L188.057 143.166L162.597 117.707L154.048 126.257L145.499 134.806L170.959 160.265L179.508 151.716ZM154.048 126.257L162.595 117.706C154.661 109.774 141.661 115.752 141.661 126.382L153.751 126.382L165.841 126.382C165.841 136.702 153.216 142.521 145.5 134.808L154.048 126.257ZM153.751 126.382L141.661 126.382C141.661 131.23 137.731 135.16 132.883 135.16L132.883 147.25L132.883 159.34C151.086 159.34 165.841 144.584 165.841 126.382L153.751 126.382ZM132.883 147.25V135.16C128.034 135.16 124.104 131.229 124.104 126.382L112.014 126.382L99.9233 126.382C99.9236 144.585 114.68 159.34 132.883 159.34V147.25ZM112.014 126.382L124.104 126.382C124.104 121.534 128.035 117.603 132.883 117.603V105.513V93.4223C114.68 93.4223 99.9234 108.179 99.9233 126.382L112.014 126.382ZM132.883 105.513L132.902 117.603C141.886 117.589 146.993 108.777 144.502 101.411L133.049 105.284L121.595 109.156C119.176 102 124.131 93.4362 132.864 93.4223L132.883 105.513ZM132.987 105.196L141.536 96.6469L116.461 71.5727L107.912 80.1221L99.3631 88.6714L124.438 113.746L132.987 105.196ZM107.912 80.1221L116.461 71.5728C117.666 72.7771 117.665 74.7283 116.462 75.9318L107.912 67.3828L99.3627 58.8338C91.1242 67.0728 91.1232 80.4318 99.3631 88.6714L107.912 80.1221ZM107.912 67.3828L116.461 75.9322L176.365 16.0298L167.816 7.48049L159.267 -1.06885L99.3631 58.8335L107.912 67.3828ZM167.816 7.48049L176.365 16.0299C181.618 10.7771 190.135 10.777 195.389 16.03L203.938 7.48049L212.486 -1.069C197.79 -15.7642 173.964 -15.7644 159.267 -1.06895L167.816 7.48049ZM203.938 7.48049L195.388 16.0298L255.293 75.9322L263.842 67.3828L272.391 58.8335L212.487 -1.06885L203.938 7.48049ZM263.842 67.3828L255.293 75.9319C254.089 74.7283 254.089 72.7769 255.293 71.5728L263.842 80.1221L272.391 88.6714C280.631 80.4319 280.63 67.0728 272.391 58.8337L263.842 67.3828ZM263.842 80.1221L255.293 71.5729L236.377 90.4886L244.926 99.0378L253.475 107.587L272.391 88.6713L263.842 80.1221ZM244.866 99.0591L249.524 87.9019C250.909 88.4799 252.242 89.3411 253.401 90.5003L244.853 99.0498L236.304 107.599C237.471 108.767 238.814 109.634 240.209 110.216L244.866 99.0591ZM244.853 99.0498L253.401 90.5003C239.365 76.465 216.609 76.4667 202.574 90.5015L211.123 99.0508L219.672 107.6C224.265 103.007 231.711 103.007 236.304 107.599L244.853 99.0498ZM211.123 99.0508L202.574 90.5019C188.539 104.537 188.538 127.292 202.574 141.327L211.123 132.778L219.672 124.229C215.08 119.637 215.08 112.192 219.673 107.6L211.123 99.0508ZM211.123 132.778L202.58 141.334C198.222 136.982 197.523 129.344 202.572 124.292L211.124 132.839L219.676 141.386C224.758 136.3 224.057 128.608 219.666 124.223L211.123 132.778ZM211.124 132.839L202.575 124.289L183.697 143.166L192.246 151.716L200.795 160.265L219.673 141.388L211.124 132.839ZM193.51 126.076L205.11 122.668C202.774 114.717 204.656 105.841 210.689 99.4949L201.926 91.165L193.163 82.8352C180.96 95.6724 177.235 113.576 181.91 129.485L193.51 126.076ZM201.926 91.165L210.583 99.6053L211.23 98.9413L202.573 90.501L193.917 82.0607L193.269 82.7247L201.926 91.165ZM202.573 90.501L211.122 99.0503C217.497 92.6761 226.593 90.6485 234.725 93.0308L238.124 81.4281L241.523 69.8254C225.251 65.0585 206.898 69.0781 194.024 81.9517L202.573 90.501ZM247.429 68.0693L255.978 59.52L203.937 7.48005L195.388 16.0293L186.839 24.5786L238.879 76.6185L247.429 68.0693ZM195.388 16.0293L203.936 7.47952C193.962 -2.49362 177.792 -2.49362 167.818 7.47961L176.366 16.0293L184.915 24.579C185.446 24.0476 186.307 24.0475 186.839 24.5791L195.388 16.0293ZM176.366 16.0293L167.817 7.48005L119.123 56.1733L127.672 64.7226L136.221 73.2719L184.915 24.5786L176.366 16.0293ZM127.672 82.7834L119.123 91.3326L133.007 105.217L141.557 96.668L150.106 88.1188L136.221 74.2342L127.672 82.7834ZM141.557 96.668L133.008 105.217C133.034 105.243 133.051 105.261 133.06 105.272L141.957 97.085L150.854 88.8983C150.605 88.6276 150.355 88.3678 150.106 88.1187L141.557 96.668ZM141.957 97.085L133.407 105.633L153.574 125.806L162.124 117.258L170.674 108.71L150.507 88.537L141.957 97.085ZM162.124 117.258L153.986 126.2C154.024 126.234 154.045 126.254 154.056 126.264C154.067 126.274 154.063 126.271 154.049 126.256L162.598 117.707L171.147 109.158C170.811 108.822 170.502 108.535 170.262 108.316L162.124 117.258ZM162.598 117.707L154.048 126.256L171.674 143.882L180.223 135.332L188.772 126.783L171.147 109.158L162.598 117.707ZM180.223 135.332L171.674 143.882C179.518 151.726 192.236 151.726 200.08 143.882L191.531 135.332L182.982 126.783C184.581 125.184 187.173 125.184 188.772 126.783L180.223 135.332ZM127.672 64.7226L119.123 56.1733C109.414 65.8822 109.414 81.6236 119.123 91.3326L127.672 82.7834L136.221 74.2342C135.955 73.9684 135.956 73.5376 136.221 73.2719L127.672 64.7226ZM247.428 79.4364L255.977 87.986C263.838 80.1256 263.838 67.3807 255.978 59.52L247.429 68.0693L238.879 76.6185C237.297 75.0357 237.297 72.4695 238.88 70.8867L247.428 79.4364ZM238.124 81.4281L234.725 93.0308C241.161 94.9162 249.732 94.2305 255.977 87.986L247.428 79.4364L238.88 70.8867C239.561 70.2056 240.302 69.9197 240.774 69.8274C241.201 69.7437 241.441 69.8014 241.523 69.8254L238.124 81.4281ZM193.51 126.076L181.91 129.485C181.883 129.391 181.824 129.139 181.91 128.701C182.004 128.22 182.295 127.47 182.982 126.783L191.531 135.332L200.08 143.882C206.312 137.65 206.999 129.094 205.11 122.668L193.51 126.076ZM244.898 99.0562L240.348 87.8548C240.752 87.6905 241.808 87.2796 243.233 87.0834C244.742 86.8758 247.027 86.8596 249.524 87.9019L244.866 99.0591L240.209 110.216C245.042 112.234 249.156 110.377 249.449 110.258L244.898 99.0562ZM244.926 99.0378L236.377 90.4886C237.511 89.3544 238.861 88.4587 240.348 87.8548L244.898 99.0562L249.449 110.258C250.956 109.645 252.325 108.737 253.475 107.587L244.926 99.0378ZM133.025 105.24L142.878 98.2338C142.476 97.6684 142.027 97.1375 141.536 96.6469L132.987 105.196L124.438 113.746C123.975 113.282 123.551 112.781 123.172 112.247L133.025 105.24ZM133.049 105.284L144.502 101.411C143.883 99.5799 142.943 98.3258 142.878 98.2338L133.025 105.24L123.172 112.247C123.113 112.165 122.868 111.821 122.594 111.352C122.31 110.865 121.921 110.12 121.595 109.156L133.049 105.284Z" fill="black" mask="url(#path-1-inside-1_479_1801)"/>
<path d="M80.4939 91.445C84.0117 87.9273 89.7151 87.9273 93.2329 91.445L110.012 108.224C111.658 109.87 111.734 112.482 110.565 114.495C105.107 123.895 106.403 136.141 114.454 144.191C122.504 152.242 134.749 153.536 144.149 148.079C146.162 146.91 148.773 146.986 150.42 148.632L167.368 165.58C170.886 169.098 170.886 174.801 167.368 178.319L148.666 197.021C145.646 200.041 148.276 206.527 152.053 208.522C153.911 209.503 155.655 210.775 157.218 212.338C165.613 220.734 165.613 234.344 157.22 242.738C148.826 251.131 135.216 251.131 126.82 242.736C125.257 241.172 123.985 239.428 123.004 237.571C121.009 233.795 114.523 231.164 111.503 234.184L93.2474 252.44C89.7296 255.957 84.0261 255.957 80.5084 252.44L18.0641 189.995C8.08991 180.021 8.09016 163.849 18.0641 153.875L80.4939 91.445Z" fill="black"/>
<path d="M291.478 253.748C287.961 257.266 282.257 257.266 278.74 253.748L262.163 237.171C260.477 235.486 260.441 232.797 261.694 230.768C267.542 221.298 266.36 208.718 258.147 200.504C249.934 192.291 237.354 191.11 227.884 196.958C225.856 198.211 223.166 198.175 221.481 196.489L204.609 179.617C201.091 176.099 201.091 170.396 204.609 166.878L223.39 148.097C226.4 145.087 223.803 138.657 220.039 136.668C218.183 135.687 216.442 134.416 214.88 132.855C206.485 124.46 206.485 110.849 214.879 102.455C223.273 94.0605 236.884 94.0613 245.279 102.456C246.84 104.018 248.111 105.759 249.092 107.614C251.081 111.379 257.511 113.976 260.521 110.966L278.733 92.7535C282.251 89.2358 287.954 89.236 291.472 92.7535L353.912 155.194C363.887 165.168 363.887 181.34 353.912 191.314L291.478 253.748Z" fill="black"/>
<path d="M177.161 195.963C182.071 191.054 190.032 191.054 194.941 195.963L218.435 219.455C218.464 219.484 218.495 219.51 218.528 219.533C218.651 219.596 218.813 219.509 218.813 219.356C218.814 207.629 228.322 198.123 240.051 198.122C251.78 198.122 261.289 207.629 261.289 219.356C261.289 231.084 251.78 240.592 240.051 240.592C239.877 240.592 239.788 240.803 239.91 240.926L262.987 263.999C267.897 268.908 267.897 276.867 262.987 281.776L211.259 333.497C197.337 347.417 174.765 347.417 160.844 333.497L109.115 281.776C104.206 276.867 104.206 268.908 109.115 263.999L122.21 250.906C124.596 248.52 128.416 248.537 131.383 250.145L131.816 250.373C140.95 255.084 152.447 253.613 160.104 245.958C167.881 238.181 169.276 226.442 164.289 217.242C162.681 214.275 162.665 210.456 165.052 208.07L177.161 195.963ZM186.391 204.512C186.226 204.348 185.974 204.327 185.787 204.45L185.711 204.512L184.83 205.393C179.618 210.605 178.583 218.497 179.181 225.844C180.015 236.102 176.513 246.649 168.654 254.507C160.794 262.366 150.242 265.869 139.98 265.033C132.635 264.435 124.745 265.47 119.534 270.68L117.665 272.548C117.477 272.736 117.478 273.04 117.665 273.228L169.394 324.948C178.593 334.146 193.509 334.146 202.709 324.948L254.437 273.228C254.624 273.04 254.624 272.736 254.437 272.548L231.36 249.475C231.147 249.261 230.944 249.043 230.751 248.823L210.631 228.699C210.393 228.493 210.158 228.276 209.929 228.047L186.391 204.512Z" fill="black"/>
</svg>
