<svg width="20" height="20" viewBox="0 0 20 20" fill="none" xmlns="http://www.w3.org/2000/svg">
<path d="M17.5 18.3337H15.833V13.3337H14.167V14.9997H12.5V16.6667H10.833V18.3337H9.16699V16.6667H7.5V14.9997H5.83301V13.3337H4.16699V11.6667H15.833V9.99969H17.5V18.3337ZM4.16699 11.6667H2.5V9.99969H4.16699V11.6667ZM5.83301 9.99969H4.16699V8.33368H5.83301V9.99969ZM15.833 9.99969H14.167V8.33368H15.833V9.99969ZM7.5 8.33368H5.83301V6.66669H7.5V8.33368ZM14.167 8.33368H12.5V6.66669H14.167V8.33368ZM9.16699 6.66669H7.5V4.99969H9.16699V6.66669ZM12.5 6.66669H10.833V4.99969H12.5V6.66669ZM10.833 4.99969H9.16699V3.33368H10.833V4.99969ZM9.16699 3.33368H7.5V1.66669H9.16699V3.33368Z" fill="black"/>
</svg>
