<svg width="20" height="20" viewBox="0 0 20 20" fill="none" xmlns="http://www.w3.org/2000/svg">
<mask id="path-1-inside-1_825_2257" fill="white">
<path d="M8.68945 17.8779H9.83203V16.7266H10.376V17.8779H11.5186V19.0293H14.4033V17.8779H15.5449V16.7266H16.6885V12.6719H15.5449V11.5205H14.4023V10.3691H13.2607V9.21777H12.1182V8.06641H10.9736V6.91504H9.23145V8.06641H8.08984V9.21777H6.94727V10.3691H5.80469V11.5205H4.66211V12.6719H3.51953V16.7266H4.66211V17.8779H5.80469V19.0293H8.68945V17.8779ZM6.4043 16.127H5.26172V13.2715H6.4043V12.1201H7.54688V10.9688H8.68945V9.81738H9.83203V8.66602H10.376V9.81738H11.5186V10.9688H12.6602V12.1201H13.8027V13.2715H14.9463V16.127H13.8027V17.2783H12.1182V16.127H10.9736V14.9756H9.23145V16.127H8.08984V17.2783H6.4043V16.127Z"/>
</mask>
<path d="M8.68945 17.8779H9.83203V16.7266H10.376V17.8779H11.5186V19.0293H14.4033V17.8779H15.5449V16.7266H16.6885V12.6719H15.5449V11.5205H14.4023V10.3691H13.2607V9.21777H12.1182V8.06641H10.9736V6.91504H9.23145V8.06641H8.08984V9.21777H6.94727V10.3691H5.80469V11.5205H4.66211V12.6719H3.51953V16.7266H4.66211V17.8779H5.80469V19.0293H8.68945V17.8779ZM6.4043 16.127H5.26172V13.2715H6.4043V12.1201H7.54688V10.9688H8.68945V9.81738H9.83203V8.66602H10.376V9.81738H11.5186V10.9688H12.6602V12.1201H13.8027V13.2715H14.9463V16.127H13.8027V17.2783H12.1182V16.127H10.9736V14.9756H9.23145V16.127H8.08984V17.2783H6.4043V16.127Z" fill="black"/>
<path d="M8.68945 17.8779H6.68945V15.8779H8.68945V17.8779ZM9.83203 17.8779H11.832V19.8779H9.83203V17.8779ZM9.83203 16.7266H7.83203V14.7266H9.83203V16.7266ZM10.376 16.7266V14.7266H12.376V16.7266H10.376ZM10.376 17.8779V19.8779H8.37598V17.8779H10.376ZM11.5186 17.8779V15.8779H13.5186V17.8779H11.5186ZM11.5186 19.0293V21.0293H9.51855V19.0293H11.5186ZM14.4033 19.0293H16.4033V21.0293H14.4033V19.0293ZM14.4033 17.8779H12.4033V15.8779H14.4033V17.8779ZM15.5449 17.8779H17.5449V19.8779H15.5449V17.8779ZM15.5449 16.7266H13.5449V14.7266H15.5449V16.7266ZM16.6885 16.7266H18.6885V18.7266H16.6885V16.7266ZM16.6885 12.6719V10.6719H18.6885V12.6719H16.6885ZM15.5449 12.6719V14.6719H13.5449V12.6719H15.5449ZM15.5449 11.5205V9.52051H17.5449V11.5205H15.5449ZM14.4023 11.5205V13.5205H12.4023V11.5205H14.4023ZM14.4023 10.3691V8.36914H16.4023V10.3691H14.4023ZM13.2607 10.3691V12.3691H11.2607V10.3691H13.2607ZM13.2607 9.21777V7.21777H15.2607V9.21777H13.2607ZM12.1182 9.21777V11.2178H10.1182V9.21777H12.1182ZM12.1182 8.06641V6.06641H14.1182V8.06641H12.1182ZM10.9736 8.06641V10.0664H8.97363V8.06641H10.9736ZM10.9736 6.91504V4.91504H12.9736V6.91504H10.9736ZM9.23145 6.91504H7.23145V4.91504H9.23145V6.91504ZM9.23145 8.06641H11.2314V10.0664H9.23145V8.06641ZM8.08984 8.06641H6.08984V6.06641H8.08984V8.06641ZM8.08984 9.21777H10.0898V11.2178H8.08984V9.21777ZM6.94727 9.21777H4.94727V7.21777H6.94727V9.21777ZM6.94727 10.3691H8.94727V12.3691H6.94727V10.3691ZM5.80469 10.3691H3.80469V8.36914H5.80469V10.3691ZM5.80469 11.5205H7.80469V13.5205H5.80469V11.5205ZM4.66211 11.5205H2.66211V9.52051H4.66211V11.5205ZM4.66211 12.6719H6.66211V14.6719H4.66211V12.6719ZM3.51953 12.6719H1.51953V10.6719H3.51953V12.6719ZM3.51953 16.7266V18.7266H1.51953V16.7266H3.51953ZM4.66211 16.7266V14.7266H6.66211V16.7266H4.66211ZM4.66211 17.8779V19.8779H2.66211V17.8779H4.66211ZM5.80469 17.8779V15.8779H7.80469V17.8779H5.80469ZM5.80469 19.0293V21.0293H3.80469V19.0293H5.80469ZM8.68945 19.0293H10.6895V21.0293H8.68945V19.0293ZM6.4043 16.127V14.127H8.4043V16.127H6.4043ZM5.26172 16.127V18.127H3.26172V16.127H5.26172ZM5.26172 13.2715H3.26172V11.2715H5.26172V13.2715ZM6.4043 13.2715H8.4043V15.2715H6.4043V13.2715ZM6.4043 12.1201H4.4043V10.1201H6.4043V12.1201ZM7.54688 12.1201H9.54688V14.1201H7.54688V12.1201ZM7.54688 10.9688H5.54688V8.96875H7.54688V10.9688ZM8.68945 10.9688H10.6895V12.9688H8.68945V10.9688ZM8.68945 9.81738H6.68945V7.81738H8.68945V9.81738ZM9.83203 9.81738H11.832V11.8174H9.83203V9.81738ZM9.83203 8.66602H7.83203V6.66602H9.83203V8.66602ZM10.376 8.66602V6.66602H12.376V8.66602H10.376ZM10.376 9.81738V11.8174H8.37598V9.81738H10.376ZM11.5186 9.81738V7.81738H13.5186V9.81738H11.5186ZM11.5186 10.9688V12.9688H9.51855V10.9688H11.5186ZM12.6602 10.9688V8.96875H14.6602V10.9688H12.6602ZM12.6602 12.1201V14.1201H10.6602V12.1201H12.6602ZM13.8027 12.1201V10.1201H15.8027V12.1201H13.8027ZM13.8027 13.2715V15.2715H11.8027V13.2715H13.8027ZM14.9463 13.2715V11.2715H16.9463V13.2715H14.9463ZM14.9463 16.127H16.9463V18.127H14.9463V16.127ZM13.8027 16.127H11.8027V14.127H13.8027V16.127ZM13.8027 17.2783H15.8027V19.2783H13.8027V17.2783ZM12.1182 17.2783V19.2783H10.1182V17.2783H12.1182ZM12.1182 16.127V14.127H14.1182V16.127H12.1182ZM10.9736 16.127V18.127H8.97363V16.127H10.9736ZM10.9736 14.9756V12.9756H12.9736V14.9756H10.9736ZM9.23145 14.9756H7.23145V12.9756H9.23145V14.9756ZM9.23145 16.127H11.2314V18.127H9.23145V16.127ZM8.08984 16.127H6.08984V14.127H8.08984V16.127ZM8.08984 17.2783H10.0898V19.2783H8.08984V17.2783ZM6.4043 17.2783V19.2783H4.4043V17.2783H6.4043ZM8.68945 17.8779V15.8779H9.83203V17.8779V19.8779H8.68945V17.8779ZM9.83203 17.8779H7.83203V16.7266H9.83203H11.832V17.8779H9.83203ZM9.83203 16.7266V14.7266H10.376V16.7266V18.7266H9.83203V16.7266ZM10.376 16.7266H12.376V17.8779H10.376H8.37598V16.7266H10.376ZM10.376 17.8779V15.8779H11.5186V17.8779V19.8779H10.376V17.8779ZM11.5186 17.8779H13.5186V19.0293H11.5186H9.51855V17.8779H11.5186ZM11.5186 19.0293V17.0293H14.4033V19.0293V21.0293H11.5186V19.0293ZM14.4033 19.0293H12.4033V17.8779H14.4033H16.4033V19.0293H14.4033ZM14.4033 17.8779V15.8779H15.5449V17.8779V19.8779H14.4033V17.8779ZM15.5449 17.8779H13.5449V16.7266H15.5449H17.5449V17.8779H15.5449ZM15.5449 16.7266V14.7266H16.6885V16.7266V18.7266H15.5449V16.7266ZM16.6885 16.7266H14.6885V12.6719H16.6885H18.6885V16.7266H16.6885ZM16.6885 12.6719V14.6719H15.5449V12.6719V10.6719H16.6885V12.6719ZM15.5449 12.6719H13.5449V11.5205H15.5449H17.5449V12.6719H15.5449ZM15.5449 11.5205V13.5205H14.4023V11.5205V9.52051H15.5449V11.5205ZM14.4023 11.5205H12.4023V10.3691H14.4023H16.4023V11.5205H14.4023ZM14.4023 10.3691V12.3691H13.2607V10.3691V8.36914H14.4023V10.3691ZM13.2607 10.3691H11.2607V9.21777H13.2607H15.2607V10.3691H13.2607ZM13.2607 9.21777V11.2178H12.1182V9.21777V7.21777H13.2607V9.21777ZM12.1182 9.21777H10.1182V8.06641H12.1182H14.1182V9.21777H12.1182ZM12.1182 8.06641V10.0664H10.9736V8.06641V6.06641H12.1182V8.06641ZM10.9736 8.06641H8.97363V6.91504H10.9736H12.9736V8.06641H10.9736ZM10.9736 6.91504V8.91504H9.23145V6.91504V4.91504H10.9736V6.91504ZM9.23145 6.91504H11.2314V8.06641H9.23145H7.23145V6.91504H9.23145ZM9.23145 8.06641V10.0664H8.08984V8.06641V6.06641H9.23145V8.06641ZM8.08984 8.06641H10.0898V9.21777H8.08984H6.08984V8.06641H8.08984ZM8.08984 9.21777V11.2178H6.94727V9.21777V7.21777H8.08984V9.21777ZM6.94727 9.21777H8.94727V10.3691H6.94727H4.94727V9.21777H6.94727ZM6.94727 10.3691V12.3691H5.80469V10.3691V8.36914H6.94727V10.3691ZM5.80469 10.3691H7.80469V11.5205H5.80469H3.80469V10.3691H5.80469ZM5.80469 11.5205V13.5205H4.66211V11.5205V9.52051H5.80469V11.5205ZM4.66211 11.5205H6.66211V12.6719H4.66211H2.66211V11.5205H4.66211ZM4.66211 12.6719V14.6719H3.51953V12.6719V10.6719H4.66211V12.6719ZM3.51953 12.6719H5.51953V16.7266H3.51953H1.51953V12.6719H3.51953ZM3.51953 16.7266V14.7266H4.66211V16.7266V18.7266H3.51953V16.7266ZM4.66211 16.7266H6.66211V17.8779H4.66211H2.66211V16.7266H4.66211ZM4.66211 17.8779V15.8779H5.80469V17.8779V19.8779H4.66211V17.8779ZM5.80469 17.8779H7.80469V19.0293H5.80469H3.80469V17.8779H5.80469ZM5.80469 19.0293V17.0293H8.68945V19.0293V21.0293H5.80469V19.0293ZM8.68945 19.0293H6.68945V17.8779H8.68945H10.6895V19.0293H8.68945ZM6.4043 16.127V18.127H5.26172V16.127V14.127H6.4043V16.127ZM5.26172 16.127H3.26172V13.2715H5.26172H7.26172V16.127H5.26172ZM5.26172 13.2715V11.2715H6.4043V13.2715V15.2715H5.26172V13.2715ZM6.4043 13.2715H4.4043V12.1201H6.4043H8.4043V13.2715H6.4043ZM6.4043 12.1201V10.1201H7.54688V12.1201V14.1201H6.4043V12.1201ZM7.54688 12.1201H5.54688V10.9688H7.54688H9.54688V12.1201H7.54688ZM7.54688 10.9688V8.96875H8.68945V10.9688V12.9688H7.54688V10.9688ZM8.68945 10.9688H6.68945V9.81738H8.68945H10.6895V10.9688H8.68945ZM8.68945 9.81738V7.81738H9.83203V9.81738V11.8174H8.68945V9.81738ZM9.83203 9.81738H7.83203V8.66602H9.83203H11.832V9.81738H9.83203ZM9.83203 8.66602V6.66602H10.376V8.66602V10.666H9.83203V8.66602ZM10.376 8.66602H12.376V9.81738H10.376H8.37598V8.66602H10.376ZM10.376 9.81738V7.81738H11.5186V9.81738V11.8174H10.376V9.81738ZM11.5186 9.81738H13.5186V10.9688H11.5186H9.51855V9.81738H11.5186ZM11.5186 10.9688V8.96875H12.6602V10.9688V12.9688H11.5186V10.9688ZM12.6602 10.9688H14.6602V12.1201H12.6602H10.6602V10.9688H12.6602ZM12.6602 12.1201V10.1201H13.8027V12.1201V14.1201H12.6602V12.1201ZM13.8027 12.1201H15.8027V13.2715H13.8027H11.8027V12.1201H13.8027ZM13.8027 13.2715V11.2715H14.9463V13.2715V15.2715H13.8027V13.2715ZM14.9463 13.2715H16.9463V16.127H14.9463H12.9463V13.2715H14.9463ZM14.9463 16.127V18.127H13.8027V16.127V14.127H14.9463V16.127ZM13.8027 16.127H15.8027V17.2783H13.8027H11.8027V16.127H13.8027ZM13.8027 17.2783V19.2783H12.1182V17.2783V15.2783H13.8027V17.2783ZM12.1182 17.2783H10.1182V16.127H12.1182H14.1182V17.2783H12.1182ZM12.1182 16.127V18.127H10.9736V16.127V14.127H12.1182V16.127ZM10.9736 16.127H8.97363V14.9756H10.9736H12.9736V16.127H10.9736ZM10.9736 14.9756V16.9756H9.23145V14.9756V12.9756H10.9736V14.9756ZM9.23145 14.9756H11.2314V16.127H9.23145H7.23145V14.9756H9.23145ZM9.23145 16.127V18.127H8.08984V16.127V14.127H9.23145V16.127ZM8.08984 16.127H10.0898V17.2783H8.08984H6.08984V16.127H8.08984ZM8.08984 17.2783V19.2783H6.4043V17.2783V15.2783H8.08984V17.2783ZM6.4043 17.2783H4.4043V16.127H6.4043H8.4043V17.2783H6.4043Z" fill="black" mask="url(#path-1-inside-1_825_2257)"/>
<path d="M4.61035 6.32916H5.08789V6.81061H5.38379V9.16119H5.08789V9.64264H4.61035V9.94147H2.27441V9.64264H1.79688V9.16119H1.5V6.81061H1.79688V6.32916H2.27441V6.03033H4.61035V6.32916ZM2.7666 7.30182H2.28711V8.66998H2.7666V9.15143H4.11816V8.66998H4.59668V7.30182H4.11816V6.82037H2.7666V7.30182Z" fill="black"/>
<path d="M4.61035 6.32916H4.41035V6.52916H4.61035V6.32916ZM5.08789 6.32916H5.28789V6.12916H5.08789V6.32916ZM5.08789 6.81061H4.88789V7.01061H5.08789V6.81061ZM5.38379 6.81061H5.58379V6.61061H5.38379V6.81061ZM5.38379 9.16119V9.36119H5.58379V9.16119H5.38379ZM5.08789 9.16119V8.96119H4.88789V9.16119H5.08789ZM5.08789 9.64264V9.84264H5.28789V9.64264H5.08789ZM4.61035 9.64264V9.44264H4.41035V9.64264H4.61035ZM4.61035 9.94147V10.1415H4.81035V9.94147H4.61035ZM2.27441 9.94147H2.07441V10.1415H2.27441V9.94147ZM2.27441 9.64264H2.47441V9.44264H2.27441V9.64264ZM1.79688 9.64264H1.59687V9.84264H1.79688V9.64264ZM1.79688 9.16119H1.99688V8.96119H1.79688V9.16119ZM1.5 9.16119H1.3V9.36119H1.5V9.16119ZM1.5 6.81061V6.61061H1.3V6.81061H1.5ZM1.79688 6.81061V7.01061H1.99688V6.81061H1.79688ZM1.79688 6.32916V6.12916H1.59687V6.32916H1.79688ZM2.27441 6.32916V6.52916H2.47441V6.32916H2.27441ZM2.27441 6.03033V5.83033H2.07441V6.03033H2.27441ZM4.61035 6.03033H4.81035V5.83033H4.61035V6.03033ZM2.7666 7.30182V7.50182H2.9666V7.30182H2.7666ZM2.28711 7.30182V7.10182H2.08711V7.30182H2.28711ZM2.28711 8.66998H2.08711V8.86998H2.28711V8.66998ZM2.7666 8.66998H2.9666V8.46998H2.7666V8.66998ZM2.7666 9.15143H2.5666V9.35143H2.7666V9.15143ZM4.11816 9.15143V9.35143H4.31816V9.15143H4.11816ZM4.11816 8.66998V8.46998H3.91816V8.66998H4.11816ZM4.59668 8.66998V8.86998H4.79668V8.66998H4.59668ZM4.59668 7.30182H4.79668V7.10182H4.59668V7.30182ZM4.11816 7.30182H3.91816V7.50182H4.11816V7.30182ZM4.11816 6.82037H4.31816V6.62037H4.11816V6.82037ZM2.7666 6.82037V6.62037H2.5666V6.82037H2.7666ZM4.61035 6.32916V6.52916H5.08789V6.32916V6.12916H4.61035V6.32916ZM5.08789 6.32916H4.88789V6.81061H5.08789H5.28789V6.32916H5.08789ZM5.08789 6.81061V7.01061H5.38379V6.81061V6.61061H5.08789V6.81061ZM5.38379 6.81061H5.18379V9.16119H5.38379H5.58379V6.81061H5.38379ZM5.38379 9.16119V8.96119H5.08789V9.16119V9.36119H5.38379V9.16119ZM5.08789 9.16119H4.88789V9.64264H5.08789H5.28789V9.16119H5.08789ZM5.08789 9.64264V9.44264H4.61035V9.64264V9.84264H5.08789V9.64264ZM4.61035 9.64264H4.41035V9.94147H4.61035H4.81035V9.64264H4.61035ZM4.61035 9.94147V9.74147H2.27441V9.94147V10.1415H4.61035V9.94147ZM2.27441 9.94147H2.47441V9.64264H2.27441H2.07441V9.94147H2.27441ZM2.27441 9.64264V9.44264H1.79688V9.64264V9.84264H2.27441V9.64264ZM1.79688 9.64264H1.99688V9.16119H1.79688H1.59687V9.64264H1.79688ZM1.79688 9.16119V8.96119H1.5V9.16119V9.36119H1.79688V9.16119ZM1.5 9.16119H1.7V6.81061H1.5H1.3V9.16119H1.5ZM1.5 6.81061V7.01061H1.79688V6.81061V6.61061H1.5V6.81061ZM1.79688 6.81061H1.99688V6.32916H1.79688H1.59687V6.81061H1.79688ZM1.79688 6.32916V6.52916H2.27441V6.32916V6.12916H1.79688V6.32916ZM2.27441 6.32916H2.47441V6.03033H2.27441H2.07441V6.32916H2.27441ZM2.27441 6.03033V6.23033H4.61035V6.03033V5.83033H2.27441V6.03033ZM4.61035 6.03033H4.41035V6.32916H4.61035H4.81035V6.03033H4.61035ZM2.7666 7.30182V7.10182H2.28711V7.30182V7.50182H2.7666V7.30182ZM2.28711 7.30182H2.08711V8.66998H2.28711H2.48711V7.30182H2.28711ZM2.28711 8.66998V8.86998H2.7666V8.66998V8.46998H2.28711V8.66998ZM2.7666 8.66998H2.5666V9.15143H2.7666H2.9666V8.66998H2.7666ZM2.7666 9.15143V9.35143H4.11816V9.15143V8.95143H2.7666V9.15143ZM4.11816 9.15143H4.31816V8.66998H4.11816H3.91816V9.15143H4.11816ZM4.11816 8.66998V8.86998H4.59668V8.66998V8.46998H4.11816V8.66998ZM4.59668 8.66998H4.79668V7.30182H4.59668H4.39668V8.66998H4.59668ZM4.59668 7.30182V7.10182H4.11816V7.30182V7.50182H4.59668V7.30182ZM4.11816 7.30182H4.31816V6.82037H4.11816H3.91816V7.30182H4.11816ZM4.11816 6.82037V6.62037H2.7666V6.82037V7.02037H4.11816V6.82037ZM2.7666 6.82037H2.5666V7.30182H2.7666H2.9666V6.82037H2.7666Z" fill="black"/>
<path d="M8.60938 2.29883H9.08789V2.78027H9.38184V5.13086H9.08789V5.6123H8.60938V5.91113H6.27344V5.6123H5.79492V5.13086H5.5V2.78027H5.79492V2.29883H6.27344V2H8.60938V2.29883ZM6.76465 3.27148H6.28711V4.63965H6.76465V5.12109H8.11816V4.63965H8.59473V3.27148H8.11816V2.79004H6.76465V3.27148Z" fill="black"/>
<path d="M8.60938 2.29883H8.40937V2.49883H8.60938V2.29883ZM9.08789 2.29883H9.28789V2.09883H9.08789V2.29883ZM9.08789 2.78027H8.88789V2.98027H9.08789V2.78027ZM9.38184 2.78027H9.58184V2.58027H9.38184V2.78027ZM9.38184 5.13086V5.33086H9.58184V5.13086H9.38184ZM9.08789 5.13086V4.93086H8.88789V5.13086H9.08789ZM9.08789 5.6123V5.8123H9.28789V5.6123H9.08789ZM8.60938 5.6123V5.4123H8.40937V5.6123H8.60938ZM8.60938 5.91113V6.11113H8.80938V5.91113H8.60938ZM6.27344 5.91113H6.07344V6.11113H6.27344V5.91113ZM6.27344 5.6123H6.47344V5.4123H6.27344V5.6123ZM5.79492 5.6123H5.59492V5.8123H5.79492V5.6123ZM5.79492 5.13086H5.99492V4.93086H5.79492V5.13086ZM5.5 5.13086H5.3V5.33086H5.5V5.13086ZM5.5 2.78027V2.58027H5.3V2.78027H5.5ZM5.79492 2.78027V2.98027H5.99492V2.78027H5.79492ZM5.79492 2.29883V2.09883H5.59492V2.29883H5.79492ZM6.27344 2.29883V2.49883H6.47344V2.29883H6.27344ZM6.27344 2V1.8H6.07344V2H6.27344ZM8.60938 2H8.80938V1.8H8.60938V2ZM6.76465 3.27148V3.47148H6.96465V3.27148H6.76465ZM6.28711 3.27148V3.07148H6.08711V3.27148H6.28711ZM6.28711 4.63965H6.08711V4.83965H6.28711V4.63965ZM6.76465 4.63965H6.96465V4.43965H6.76465V4.63965ZM6.76465 5.12109H6.56465V5.32109H6.76465V5.12109ZM8.11816 5.12109V5.32109H8.31816V5.12109H8.11816ZM8.11816 4.63965V4.43965H7.91816V4.63965H8.11816ZM8.59473 4.63965V4.83965H8.79473V4.63965H8.59473ZM8.59473 3.27148H8.79473V3.07148H8.59473V3.27148ZM8.11816 3.27148H7.91816V3.47148H8.11816V3.27148ZM8.11816 2.79004H8.31816V2.59004H8.11816V2.79004ZM6.76465 2.79004V2.59004H6.56465V2.79004H6.76465ZM8.60938 2.29883V2.49883H9.08789V2.29883V2.09883H8.60938V2.29883ZM9.08789 2.29883H8.88789V2.78027H9.08789H9.28789V2.29883H9.08789ZM9.08789 2.78027V2.98027H9.38184V2.78027V2.58027H9.08789V2.78027ZM9.38184 2.78027H9.18184V5.13086H9.38184H9.58184V2.78027H9.38184ZM9.38184 5.13086V4.93086H9.08789V5.13086V5.33086H9.38184V5.13086ZM9.08789 5.13086H8.88789V5.6123H9.08789H9.28789V5.13086H9.08789ZM9.08789 5.6123V5.4123H8.60938V5.6123V5.8123H9.08789V5.6123ZM8.60938 5.6123H8.40937V5.91113H8.60938H8.80938V5.6123H8.60938ZM8.60938 5.91113V5.71113H6.27344V5.91113V6.11113H8.60938V5.91113ZM6.27344 5.91113H6.47344V5.6123H6.27344H6.07344V5.91113H6.27344ZM6.27344 5.6123V5.4123H5.79492V5.6123V5.8123H6.27344V5.6123ZM5.79492 5.6123H5.99492V5.13086H5.79492H5.59492V5.6123H5.79492ZM5.79492 5.13086V4.93086H5.5V5.13086V5.33086H5.79492V5.13086ZM5.5 5.13086H5.7V2.78027H5.5H5.3V5.13086H5.5ZM5.5 2.78027V2.98027H5.79492V2.78027V2.58027H5.5V2.78027ZM5.79492 2.78027H5.99492V2.29883H5.79492H5.59492V2.78027H5.79492ZM5.79492 2.29883V2.49883H6.27344V2.29883V2.09883H5.79492V2.29883ZM6.27344 2.29883H6.47344V2H6.27344H6.07344V2.29883H6.27344ZM6.27344 2V2.2H8.60938V2V1.8H6.27344V2ZM8.60938 2H8.40937V2.29883H8.60938H8.80938V2H8.60938ZM6.76465 3.27148V3.07148H6.28711V3.27148V3.47148H6.76465V3.27148ZM6.28711 3.27148H6.08711V4.63965H6.28711H6.48711V3.27148H6.28711ZM6.28711 4.63965V4.83965H6.76465V4.63965V4.43965H6.28711V4.63965ZM6.76465 4.63965H6.56465V5.12109H6.76465H6.96465V4.63965H6.76465ZM6.76465 5.12109V5.32109H8.11816V5.12109V4.92109H6.76465V5.12109ZM8.11816 5.12109H8.31816V4.63965H8.11816H7.91816V5.12109H8.11816ZM8.11816 4.63965V4.83965H8.59473V4.63965V4.43965H8.11816V4.63965ZM8.59473 4.63965H8.79473V3.27148H8.59473H8.39473V4.63965H8.59473ZM8.59473 3.27148V3.07148H8.11816V3.27148V3.47148H8.59473V3.27148ZM8.11816 3.27148H8.31816V2.79004H8.11816H7.91816V3.27148H8.11816ZM8.11816 2.79004V2.59004H6.76465V2.79004V2.99004H8.11816V2.79004ZM6.76465 2.79004H6.56465V3.27148H6.76465H6.96465V2.79004H6.76465Z" fill="black"/>
<path d="M13.751 2.29883H14.2295V2.78027H14.5244V5.13086H14.2295V5.6123H13.751V5.91113H11.415V5.6123H10.9385V5.13086H10.6406V2.78027H10.9385V2.29883H11.415V2H13.751V2.29883ZM11.9082 3.27148H11.4277V4.63965H11.9082V5.12109H13.2598V4.63965H13.7373V3.27148H13.2598V2.79004H11.9082V3.27148Z" fill="black"/>
<path d="M13.751 2.29883H13.551V2.49883H13.751V2.29883ZM14.2295 2.29883H14.4295V2.09883H14.2295V2.29883ZM14.2295 2.78027H14.0295V2.98027H14.2295V2.78027ZM14.5244 2.78027H14.7244V2.58027H14.5244V2.78027ZM14.5244 5.13086V5.33086H14.7244V5.13086H14.5244ZM14.2295 5.13086V4.93086H14.0295V5.13086H14.2295ZM14.2295 5.6123V5.8123H14.4295V5.6123H14.2295ZM13.751 5.6123V5.4123H13.551V5.6123H13.751ZM13.751 5.91113V6.11113H13.951V5.91113H13.751ZM11.415 5.91113H11.215V6.11113H11.415V5.91113ZM11.415 5.6123H11.615V5.4123H11.415V5.6123ZM10.9385 5.6123H10.7385V5.8123H10.9385V5.6123ZM10.9385 5.13086H11.1385V4.93086H10.9385V5.13086ZM10.6406 5.13086H10.4406V5.33086H10.6406V5.13086ZM10.6406 2.78027V2.58027H10.4406V2.78027H10.6406ZM10.9385 2.78027V2.98027H11.1385V2.78027H10.9385ZM10.9385 2.29883V2.09883H10.7385V2.29883H10.9385ZM11.415 2.29883V2.49883H11.615V2.29883H11.415ZM11.415 2V1.8H11.215V2H11.415ZM13.751 2H13.951V1.8H13.751V2ZM11.9082 3.27148V3.47148H12.1082V3.27148H11.9082ZM11.4277 3.27148V3.07148H11.2277V3.27148H11.4277ZM11.4277 4.63965H11.2277V4.83965H11.4277V4.63965ZM11.9082 4.63965H12.1082V4.43965H11.9082V4.63965ZM11.9082 5.12109H11.7082V5.32109H11.9082V5.12109ZM13.2598 5.12109V5.32109H13.4598V5.12109H13.2598ZM13.2598 4.63965V4.43965H13.0598V4.63965H13.2598ZM13.7373 4.63965V4.83965H13.9373V4.63965H13.7373ZM13.7373 3.27148H13.9373V3.07148H13.7373V3.27148ZM13.2598 3.27148H13.0598V3.47148H13.2598V3.27148ZM13.2598 2.79004H13.4598V2.59004H13.2598V2.79004ZM11.9082 2.79004V2.59004H11.7082V2.79004H11.9082ZM13.751 2.29883V2.49883H14.2295V2.29883V2.09883H13.751V2.29883ZM14.2295 2.29883H14.0295V2.78027H14.2295H14.4295V2.29883H14.2295ZM14.2295 2.78027V2.98027H14.5244V2.78027V2.58027H14.2295V2.78027ZM14.5244 2.78027H14.3244V5.13086H14.5244H14.7244V2.78027H14.5244ZM14.5244 5.13086V4.93086H14.2295V5.13086V5.33086H14.5244V5.13086ZM14.2295 5.13086H14.0295V5.6123H14.2295H14.4295V5.13086H14.2295ZM14.2295 5.6123V5.4123H13.751V5.6123V5.8123H14.2295V5.6123ZM13.751 5.6123H13.551V5.91113H13.751H13.951V5.6123H13.751ZM13.751 5.91113V5.71113H11.415V5.91113V6.11113H13.751V5.91113ZM11.415 5.91113H11.615V5.6123H11.415H11.215V5.91113H11.415ZM11.415 5.6123V5.4123H10.9385V5.6123V5.8123H11.415V5.6123ZM10.9385 5.6123H11.1385V5.13086H10.9385H10.7385V5.6123H10.9385ZM10.9385 5.13086V4.93086H10.6406V5.13086V5.33086H10.9385V5.13086ZM10.6406 5.13086H10.8406V2.78027H10.6406H10.4406V5.13086H10.6406ZM10.6406 2.78027V2.98027H10.9385V2.78027V2.58027H10.6406V2.78027ZM10.9385 2.78027H11.1385V2.29883H10.9385H10.7385V2.78027H10.9385ZM10.9385 2.29883V2.49883H11.415V2.29883V2.09883H10.9385V2.29883ZM11.415 2.29883H11.615V2H11.415H11.215V2.29883H11.415ZM11.415 2V2.2H13.751V2V1.8H11.415V2ZM13.751 2H13.551V2.29883H13.751H13.951V2H13.751ZM11.9082 3.27148V3.07148H11.4277V3.27148V3.47148H11.9082V3.27148ZM11.4277 3.27148H11.2277V4.63965H11.4277H11.6277V3.27148H11.4277ZM11.4277 4.63965V4.83965H11.9082V4.63965V4.43965H11.4277V4.63965ZM11.9082 4.63965H11.7082V5.12109H11.9082H12.1082V4.63965H11.9082ZM11.9082 5.12109V5.32109H13.2598V5.12109V4.92109H11.9082V5.12109ZM13.2598 5.12109H13.4598V4.63965H13.2598H13.0598V5.12109H13.2598ZM13.2598 4.63965V4.83965H13.7373V4.63965V4.43965H13.2598V4.63965ZM13.7373 4.63965H13.9373V3.27148H13.7373H13.5373V4.63965H13.7373ZM13.7373 3.27148V3.07148H13.2598V3.27148V3.47148H13.7373V3.27148ZM13.2598 3.27148H13.4598V2.79004H13.2598H13.0598V3.27148H13.2598ZM13.2598 2.79004V2.59004H11.9082V2.79004V2.99004H13.2598V2.79004ZM11.9082 2.79004H11.7082V3.27148H11.9082H12.1082V2.79004H11.9082Z" fill="black"/>
<path d="M17.751 6.32916H18.2285V6.81061H18.5234V9.16119H18.2285V9.64264H17.751V9.94147H15.415V9.64264H14.9365V9.16119H14.6396V6.81061H14.9365V6.32916H15.415V6.03033H17.751V6.32916ZM15.9062 7.30182H15.4268V8.66998H15.9062V9.15143H17.2588V8.66998H17.7363V7.30182H17.2588V6.82037H15.9062V7.30182Z" fill="black"/>
<path d="M17.751 6.32916H17.551V6.52916H17.751V6.32916ZM18.2285 6.32916H18.4285V6.12916H18.2285V6.32916ZM18.2285 6.81061H18.0285V7.01061H18.2285V6.81061ZM18.5234 6.81061H18.7234V6.61061H18.5234V6.81061ZM18.5234 9.16119V9.36119H18.7234V9.16119H18.5234ZM18.2285 9.16119V8.96119H18.0285V9.16119H18.2285ZM18.2285 9.64264V9.84264H18.4285V9.64264H18.2285ZM17.751 9.64264V9.44264H17.551V9.64264H17.751ZM17.751 9.94147V10.1415H17.951V9.94147H17.751ZM15.415 9.94147H15.215V10.1415H15.415V9.94147ZM15.415 9.64264H15.615V9.44264H15.415V9.64264ZM14.9365 9.64264H14.7365V9.84264H14.9365V9.64264ZM14.9365 9.16119H15.1365V8.96119H14.9365V9.16119ZM14.6396 9.16119H14.4396V9.36119H14.6396V9.16119ZM14.6396 6.81061V6.61061H14.4396V6.81061H14.6396ZM14.9365 6.81061V7.01061H15.1365V6.81061H14.9365ZM14.9365 6.32916V6.12916H14.7365V6.32916H14.9365ZM15.415 6.32916V6.52916H15.615V6.32916H15.415ZM15.415 6.03033V5.83033H15.215V6.03033H15.415ZM17.751 6.03033H17.951V5.83033H17.751V6.03033ZM15.9062 7.30182V7.50182H16.1063V7.30182H15.9062ZM15.4268 7.30182V7.10182H15.2268V7.30182H15.4268ZM15.4268 8.66998H15.2268V8.86998H15.4268V8.66998ZM15.9062 8.66998H16.1063V8.46998H15.9062V8.66998ZM15.9062 9.15143H15.7062V9.35143H15.9062V9.15143ZM17.2588 9.15143V9.35143H17.4588V9.15143H17.2588ZM17.2588 8.66998V8.46998H17.0588V8.66998H17.2588ZM17.7363 8.66998V8.86998H17.9363V8.66998H17.7363ZM17.7363 7.30182H17.9363V7.10182H17.7363V7.30182ZM17.2588 7.30182H17.0588V7.50182H17.2588V7.30182ZM17.2588 6.82037H17.4588V6.62037H17.2588V6.82037ZM15.9062 6.82037V6.62037H15.7062V6.82037H15.9062ZM17.751 6.32916V6.52916H18.2285V6.32916V6.12916H17.751V6.32916ZM18.2285 6.32916H18.0285V6.81061H18.2285H18.4285V6.32916H18.2285ZM18.2285 6.81061V7.01061H18.5234V6.81061V6.61061H18.2285V6.81061ZM18.5234 6.81061H18.3234V9.16119H18.5234H18.7234V6.81061H18.5234ZM18.5234 9.16119V8.96119H18.2285V9.16119V9.36119H18.5234V9.16119ZM18.2285 9.16119H18.0285V9.64264H18.2285H18.4285V9.16119H18.2285ZM18.2285 9.64264V9.44264H17.751V9.64264V9.84264H18.2285V9.64264ZM17.751 9.64264H17.551V9.94147H17.751H17.951V9.64264H17.751ZM17.751 9.94147V9.74147H15.415V9.94147V10.1415H17.751V9.94147ZM15.415 9.94147H15.615V9.64264H15.415H15.215V9.94147H15.415ZM15.415 9.64264V9.44264H14.9365V9.64264V9.84264H15.415V9.64264ZM14.9365 9.64264H15.1365V9.16119H14.9365H14.7365V9.64264H14.9365ZM14.9365 9.16119V8.96119H14.6396V9.16119V9.36119H14.9365V9.16119ZM14.6396 9.16119H14.8396V6.81061H14.6396H14.4396V9.16119H14.6396ZM14.6396 6.81061V7.01061H14.9365V6.81061V6.61061H14.6396V6.81061ZM14.9365 6.81061H15.1365V6.32916H14.9365H14.7365V6.81061H14.9365ZM14.9365 6.32916V6.52916H15.415V6.32916V6.12916H14.9365V6.32916ZM15.415 6.32916H15.615V6.03033H15.415H15.215V6.32916H15.415ZM15.415 6.03033V6.23033H17.751V6.03033V5.83033H15.415V6.03033ZM17.751 6.03033H17.551V6.32916H17.751H17.951V6.03033H17.751ZM15.9062 7.30182V7.10182H15.4268V7.30182V7.50182H15.9062V7.30182ZM15.4268 7.30182H15.2268V8.66998H15.4268H15.6268V7.30182H15.4268ZM15.4268 8.66998V8.86998H15.9062V8.66998V8.46998H15.4268V8.66998ZM15.9062 8.66998H15.7062V9.15143H15.9062H16.1063V8.66998H15.9062ZM15.9062 9.15143V9.35143H17.2588V9.15143V8.95143H15.9062V9.15143ZM17.2588 9.15143H17.4588V8.66998H17.2588H17.0588V9.15143H17.2588ZM17.2588 8.66998V8.86998H17.7363V8.66998V8.46998H17.2588V8.66998ZM17.7363 8.66998H17.9363V7.30182H17.7363H17.5363V8.66998H17.7363ZM17.7363 7.30182V7.10182H17.2588V7.30182V7.50182H17.7363V7.30182ZM17.2588 7.30182H17.4588V6.82037H17.2588H17.0588V7.30182H17.2588ZM17.2588 6.82037V6.62037H15.9062V6.82037V7.02037H17.2588V6.82037ZM15.9062 6.82037H15.7062V7.30182H15.9062H16.1063V6.82037H15.9062Z" fill="black"/>
</svg>
