<svg width="20" height="20" viewBox="0 0 20 20" fill="none" xmlns="http://www.w3.org/2000/svg">
<path d="M8.3335 18.3337H6.6665V16.6667H8.3335V18.3337ZM6.6665 13.3337H16.6665V14.9997H6.6665V16.6667H4.99951V14.9997H3.3335V13.3337H4.99951V11.6667H6.6665V13.3337ZM18.3335 13.3337H16.6665V9.16669H18.3335V13.3337ZM8.3335 11.6667H6.6665V9.99969H8.3335V11.6667ZM3.3335 10.8337H1.6665V6.66669H3.3335V10.8337ZM13.3335 9.99969H11.6665V8.33368H13.3335V9.99969ZM14.9995 4.99969H16.6665V6.66669H14.9995V8.33368H13.3335V6.66669H3.3335V4.99969H13.3335V3.33368H14.9995V4.99969ZM13.3335 3.33368H11.6665V1.66669H13.3335V3.33368Z" fill="black"/>
</svg>
