<svg width="20" height="20" viewBox="0 0 20 20" fill="none" xmlns="http://www.w3.org/2000/svg">
<rect y="7.99951" width="2" height="2.00008" fill="#303030"/>
<rect y="5.99939" width="2" height="2.00008" fill="#303030"/>
<rect x="2" y="3.99927" width="2" height="2.00008" fill="#303030"/>
<rect width="2" height="2.00008" transform="matrix(-1 0 0 1 6 15.9998)" fill="#303030"/>
<rect width="2" height="2.00008" transform="matrix(-1 0 0 1 4 13.9998)" fill="#303030"/>
<rect y="9.99951" width="2" height="2.00008" fill="#303030"/>
<rect y="11.9996" width="2" height="2.00008" fill="#303030"/>
<rect width="2" height="2.00008" transform="matrix(-1 0 0 1 20 7.99951)" fill="#303030"/>
<rect width="2" height="2.00008" transform="matrix(-1 0 0 1 20 5.99939)" fill="#303030"/>
<rect width="2" height="2.00008" transform="matrix(-1 0 0 1 18 3.99927)" fill="#303030"/>
<rect width="2" height="2.00008" transform="matrix(-1 0 0 1 16 1.99927)" fill="#303030"/>
<rect x="14" y="15.9998" width="2" height="2.00008" fill="#303030"/>
<rect x="12" y="17.9999" width="2" height="2.00008" fill="#303030"/>
<rect x="14" y="17.9999" width="2" height="2.00008" fill="#303030"/>
<rect x="12" y="15.9998" width="2" height="2.00008" fill="#303030"/>
<rect x="16" y="17.9999" width="2" height="2.00008" fill="#303030"/>
<rect x="12" y="13.9998" width="2" height="2.00008" fill="#303030"/>
<rect x="16" y="13.9998" width="2" height="2.00008" fill="#303030"/>
<rect width="2" height="2.00008" transform="matrix(-1 0 0 1 20 9.99951)" fill="#303030"/>
<rect width="2" height="2.00008" transform="matrix(-1 0 0 1 20 11.9996)" fill="#303030"/>
<rect x="6.01074" y="4.00012" width="2" height="2.00008" transform="rotate(180 6.01074 4.00012)" fill="#303030"/>
<rect x="8.01074" y="2.00012" width="2" height="2.00008" transform="rotate(180 8.01074 2.00012)" fill="#303030"/>
<rect x="6.01074" y="2.00012" width="2" height="2.00008" transform="rotate(180 6.01074 2.00012)" fill="#303030"/>
<rect x="8.01074" y="4.00012" width="2" height="2.00008" transform="rotate(180 8.01074 4.00012)" fill="#303030"/>
<rect x="4.01074" y="2.00012" width="2" height="2.00008" transform="rotate(180 4.01074 2.00012)" fill="#303030"/>
<rect x="8.01074" y="6.00024" width="2" height="2.00008" transform="rotate(180 8.01074 6.00024)" fill="#303030"/>
</svg>
