<svg width="191" height="191" viewBox="0 0 191 191" fill="none" xmlns="http://www.w3.org/2000/svg">
<rect x="48.4494" y="1.35005" width="23.45" height="23.45" fill="#FFCCCC" stroke="#FFCCCC" stroke-width="0.1"/>
<rect x="72.0002" y="1.35005" width="23.45" height="23.45" fill="#FFCCCC" stroke="#FFCCCC" stroke-width="0.1"/>
<rect x="95.55" y="1.35005" width="23.45" height="23.45" fill="#FFCCCC" stroke="#FFCCCC" stroke-width="0.1"/>
<rect x="48.4494" y="24.9001" width="23.45" height="23.45" fill="#FFCCCC" stroke="#FFCCCC" stroke-width="0.1"/>
<rect x="42.05" y="42.05" width="23.45" height="23.45" fill="#FFCCCC" stroke="#FFCCCC" stroke-width="0.1"/>
<rect x="126.05" y="42.05" width="23.45" height="23.45" fill="#FFCCCC" stroke="#FFCCCC" stroke-width="0.1"/>
<rect x="42.05" y="126.05" width="23.45" height="23.45" fill="#FFCCCC" stroke="#FFCCCC" stroke-width="0.1"/>
<rect x="126.05" y="126.05" width="23.45" height="23.45" fill="#FFCCCC" stroke="#FFCCCC" stroke-width="0.1"/>
<rect x="72.0002" y="24.9001" width="23.45" height="23.45" fill="#FFCCCC" stroke="#FFCCCC" stroke-width="0.1"/>
<rect x="95.55" y="24.9001" width="23.45" height="23.45" fill="#FFCCCC" stroke="#FFCCCC" stroke-width="0.1"/>
<rect x="48.4494" y="142.65" width="23.45" height="23.45" fill="#FFCCCC" stroke="#FFCCCC" stroke-width="0.1"/>
<rect x="72.0002" y="142.65" width="23.45" height="23.45" fill="#FFCCCC" stroke="#FFCCCC" stroke-width="0.1"/>
<rect x="95.55" y="142.65" width="23.45" height="23.45" fill="#FFCCCC" stroke="#FFCCCC" stroke-width="0.1"/>
<rect x="119.1" y="142.65" width="23.45" height="23.45" fill="#FFCCCC" stroke="#FFCCCC" stroke-width="0.1"/>
<rect x="24.8996" y="24.9001" width="23.45" height="23.45" fill="#FFCCCC" stroke="#FFCCCC" stroke-width="0.1"/>
<rect x="1.3498" y="48.4499" width="23.45" height="23.45" fill="#FFCCCC" stroke="#FFCCCC" stroke-width="0.1"/>
<rect x="1.3498" y="72" width="23.45" height="23.45" fill="#FFCCCC" stroke="#FFCCCC" stroke-width="0.1"/>
<rect x="1.3498" y="95.55" width="23.45" height="23.45" fill="#FFCCCC" stroke="#FFCCCC" stroke-width="0.1"/>
<rect x="1.3498" y="119.1" width="23.45" height="23.45" fill="#FFCCCC" stroke="#FFCCCC" stroke-width="0.1"/>
<rect x="24.8996" y="142.65" width="23.45" height="23.45" fill="#FFCCCC" stroke="#FFCCCC" stroke-width="0.1"/>
<rect x="48.4494" y="166.2" width="23.45" height="23.45" fill="#FFCCCC" stroke="#FFCCCC" stroke-width="0.1"/>
<rect x="72.0002" y="166.2" width="23.45" height="23.45" fill="#FFCCCC" stroke="#FFCCCC" stroke-width="0.1"/>
<rect x="95.55" y="166.2" width="23.45" height="23.45" fill="#FFCCCC" stroke="#FFCCCC" stroke-width="0.1"/>
<rect x="119.1" y="166.2" width="23.45" height="23.45" fill="#FFCCCC" stroke="#FFCCCC" stroke-width="0.1"/>
<rect x="142.65" y="142.65" width="23.45" height="23.45" fill="#FFCCCC" stroke="#FFCCCC" stroke-width="0.1"/>
<rect x="166.199" y="119.1" width="23.45" height="23.45" fill="#FFCCCC" stroke="#FFCCCC" stroke-width="0.1"/>
<rect x="166.199" y="95.55" width="23.45" height="23.45" fill="#FFCCCC" stroke="#FFCCCC" stroke-width="0.1"/>
<rect x="166.199" y="72" width="23.45" height="23.45" fill="#FFCCCC" stroke="#FFCCCC" stroke-width="0.1"/>
<rect x="166.199" y="48.4499" width="23.45" height="23.45" fill="#FFCCCC" stroke="#FFCCCC" stroke-width="0.1"/>
<rect x="142.65" y="119.1" width="23.45" height="23.45" fill="#FFCCCC" stroke="#FFCCCC" stroke-width="0.1"/>
<rect x="142.65" y="95.55" width="23.45" height="23.45" fill="#FFCCCC" stroke="#FFCCCC" stroke-width="0.1"/>
<rect x="142.65" y="72" width="23.45" height="23.45" fill="#FFCCCC" stroke="#FFCCCC" stroke-width="0.1"/>
<rect x="142.65" y="48.4499" width="23.45" height="23.45" fill="#FFCCCC" stroke="#FFCCCC" stroke-width="0.1"/>
<rect x="24.8996" y="119.1" width="23.45" height="23.45" fill="#FFCCCC" stroke="#FFCCCC" stroke-width="0.1"/>
<rect x="24.8996" y="95.55" width="23.45" height="23.45" fill="#FFCCCC" stroke="#FFCCCC" stroke-width="0.1"/>
<rect x="24.8996" y="72" width="23.45" height="23.45" fill="#FFCCCC" stroke="#FFCCCC" stroke-width="0.1"/>
<rect x="24.8996" y="48.4499" width="23.45" height="23.45" fill="#FFCCCC" stroke="#FFCCCC" stroke-width="0.1"/>
<rect x="119.1" y="1.35005" width="23.45" height="23.45" fill="#FFCCCC" stroke="#FFCCCC" stroke-width="0.1"/>
<rect x="119.1" y="24.9001" width="23.45" height="23.45" fill="#FFCCCC" stroke="#FFCCCC" stroke-width="0.1"/>
<rect x="142.65" y="24.9001" width="23.45" height="23.45" fill="#FFCCCC" stroke="#FFCCCC" stroke-width="0.1"/>
<rect x="1.3498" y="72" width="23.45" height="23.45" fill="#FFCCCC" stroke="#FFCCCC" stroke-width="0.1"/>
<path d="M189.7 142.6V48.4H166.15V24.85H142.6V1.30005H48.3998V24.85H24.8498V48.4H1.2998V142.6H24.8498V166.15H48.3998V189.7H142.6V166.15H166.15V142.6H189.7Z" stroke="black" stroke-width="1.57"/>
</svg>
