<svg width="22" height="22" viewBox="0 0 22 22" fill="none" xmlns="http://www.w3.org/2000/svg">
<path d="M3.4249 8.47395V5.94763H1V8.47395H3.4249Z" fill="#FDEFEF" stroke="#FDEFEF" stroke-width="0.1"/>
<path d="M5.95517 6.05287V3.52655H3.53027V6.05287H5.95517Z" fill="#FDEFEF" stroke="#FDEFEF" stroke-width="0.1"/>
<path d="M3.4249 10.8947V8.36835H1V10.8947H3.4249Z" fill="#FDEFEF" stroke="#FDEFEF" stroke-width="0.1"/>
<path d="M3.4249 13.4212V10.8949H1V13.4212H3.4249Z" fill="#FDEFEF" stroke="#FDEFEF" stroke-width="0.1"/>
<path d="M3.4249 15.9474V13.4211H1V15.9474H3.4249Z" fill="#FDEFEF" stroke="#FDEFEF" stroke-width="0.1"/>
<path d="M5.95517 18.4739V15.9476H3.53027V18.4739H5.95517Z" fill="#FDEFEF" stroke="#FDEFEF" stroke-width="0.1"/>
<path d="M8.48593 20.9998V18.4734H6.06104V20.9998H8.48593Z" fill="#FDEFEF" stroke="#FDEFEF" stroke-width="0.1"/>
<path d="M13.546 20.9998V18.4734H11.1211V20.9998H13.546Z" fill="#FDEFEF" stroke="#FDEFEF" stroke-width="0.1"/>
<path d="M16.0763 20.9998V18.4734H13.6514V20.9998H16.0763Z" fill="#FDEFEF" stroke="#FDEFEF" stroke-width="0.1"/>
<path d="M18.3961 18.4739V15.9476H15.9712V18.4739H18.3961Z" fill="#FDEFEF" stroke="#FDEFEF" stroke-width="0.1"/>
<path d="M21.0001 15.9474V13.4211H18.5752V15.9474H21.0001Z" fill="#FDEFEF" stroke="#FDEFEF" stroke-width="0.1"/>
<path d="M21.0001 13.4212V10.8949H18.5752V13.4212H21.0001Z" fill="#FDEFEF" stroke="#FDEFEF" stroke-width="0.1"/>
<path d="M21.0001 10.8947V8.36835H18.5752V10.8947H21.0001Z" fill="#FDEFEF" stroke="#FDEFEF" stroke-width="0.1"/>
<path d="M21.0001 8.36848V5.84216H18.5752V8.36848H21.0001Z" fill="#FDEFEF" stroke="#FDEFEF" stroke-width="0.1"/>
<path d="M18.3961 6.05287V3.52655H15.9712V6.05287H18.3961Z" fill="#FDEFEF" stroke="#FDEFEF" stroke-width="0.1"/>
<path d="M15.8653 3.52632V1H13.4404V3.52632H15.8653Z" fill="#FDEFEF" stroke="#FDEFEF" stroke-width="0.1"/>
<path d="M13.3351 3.52632V1H10.9102V3.52632H13.3351Z" fill="#FDEFEF" stroke="#FDEFEF" stroke-width="0.1"/>
<path d="M11.0157 3.52632V1H8.59082V3.52632H11.0157Z" fill="#FDEFEF" stroke="#FDEFEF" stroke-width="0.1"/>
<path d="M8.48593 3.52632V1H6.06104V3.52632H8.48593Z" fill="#FDEFEF" stroke="#FDEFEF" stroke-width="0.1"/>
<path d="M11.0157 20.9998V18.4734H8.59082V20.9998H11.0157Z" fill="#FDEFEF" stroke="#FDEFEF" stroke-width="0.1"/>
</svg>
