<svg width="20" height="20" viewBox="0 0 20 20" fill="none" xmlns="http://www.w3.org/2000/svg">
<path d="M18.3335 18.3336H16.6665V16.6666H18.3335V18.3336ZM16.6665 16.6666H15.0005V14.9996H16.6665V16.6666ZM11.6665 14.9996H5.00049V13.3336H11.6665V14.9996ZM14.9995 14.9996H13.3335V13.3336H14.9995V14.9996ZM4.99951 13.3336H3.3335V11.6666H4.99951V13.3336ZM13.3335 13.3336H11.6665V11.6666H13.3335V13.3336ZM3.3335 11.6666H1.6665V4.99963H3.3335V11.6666ZM14.9995 11.6666H13.3335V4.99963H14.9995V11.6666ZM4.99951 4.99963H3.3335V3.33362H4.99951V4.99963ZM13.3335 4.99963H11.6665V3.33362H13.3335V4.99963ZM11.6665 3.33362H5.00049V1.66663H11.6665V3.33362Z" fill="#959595"/>
</svg>
