<svg width="20" height="20" viewBox="0 0 20 20" fill="none" xmlns="http://www.w3.org/2000/svg">
<path d="M13.8096 10.5957L13.8096 12.6191L15.833 12.6191L15.833 10.5957L17.8574 10.5957L17.8574 8.57129L15.833 8.57129L15.833 6.54785L13.8096 6.54785L13.8096 8.57129L1.66699 8.57129L1.66699 10.5957L13.8096 10.5957ZM13.8096 6.54785L13.8096 4.52344L11.7861 4.52344L11.7861 6.54785L13.8096 6.54785ZM13.8096 14.6426L13.8096 12.6191L11.7861 12.6191L11.7861 14.6426L13.8096 14.6426ZM9.76172 4.52344L11.7861 4.52344L11.7861 2.5L9.76172 2.5L9.76172 4.52344ZM11.7861 16.667L11.7861 14.6426L9.76172 14.6426L9.76172 16.667L11.7861 16.667Z" fill="black"/>
</svg>
