<svg width="20" height="11" viewBox="0 0 20 11" fill="none" xmlns="http://www.w3.org/2000/svg">
<path d="M6.80089 4.65347V3.67207H5.85889V4.65347H6.80089Z" fill="black" stroke="black" stroke-width="0.5"/>
<path d="M7.7838 3.71292V2.73152H6.8418V3.71292H7.7838Z" fill="black" stroke="black" stroke-width="0.5"/>
<path d="M6.80089 5.59383V4.61243H5.85889V5.59383H6.80089Z" fill="black" stroke="black" stroke-width="0.5"/>
<path d="M6.80089 6.57532V5.59392H5.85889V6.57532H6.80089Z" fill="black" stroke="black" stroke-width="0.5"/>
<path d="M6.80089 7.55669V6.57529H5.85889V7.55669H6.80089Z" fill="black" stroke="black" stroke-width="0.5"/>
<path d="M7.7838 8.53816V7.55676H6.8418V8.53816H7.7838Z" fill="black" stroke="black" stroke-width="0.5"/>
<path d="M8.7672 9.51935V8.53795H7.8252V9.51935H8.7672Z" fill="black" stroke="black" stroke-width="0.5"/>
<path d="M10.7328 9.51935V8.53795H9.79077V9.51935H10.7328Z" fill="black" stroke="black" stroke-width="0.5"/>
<path d="M11.7152 9.51935V8.53795H10.7732V9.51935H11.7152Z" fill="black" stroke="black" stroke-width="0.5"/>
<path d="M12.6168 8.53816V7.55676H11.6748V8.53816H12.6168Z" fill="black" stroke="black" stroke-width="0.5"/>
<path d="M13.6283 7.55669V6.57529H12.6863V7.55669H13.6283Z" fill="black" stroke="black" stroke-width="0.5"/>
<path d="M13.6283 6.57532V5.59392H12.6863V6.57532H13.6283Z" fill="black" stroke="black" stroke-width="0.5"/>
<path d="M13.6283 5.59383V4.61243H12.6863V5.59383H13.6283Z" fill="black" stroke="black" stroke-width="0.5"/>
<path d="M13.6283 4.6125V3.6311H12.6863V4.6125H13.6283Z" fill="black" stroke="black" stroke-width="0.5"/>
<path d="M12.6168 3.71292V2.73152H11.6748V3.71292H12.6168Z" fill="black" stroke="black" stroke-width="0.5"/>
<path d="M11.6334 2.73141V1.75002H10.6914V2.73141H11.6334Z" fill="black" stroke="black" stroke-width="0.5"/>
<path d="M10.6505 2.73141V1.75002H9.7085V2.73141H10.6505Z" fill="black" stroke="black" stroke-width="0.5"/>
<path d="M9.74962 2.73141V1.75002H8.80762V2.73141H9.74962Z" fill="black" stroke="black" stroke-width="0.5"/>
<path d="M8.7672 2.73141V1.75002H7.8252V2.73141H8.7672Z" fill="black" stroke="black" stroke-width="0.5"/>
<path d="M9.74962 9.51935V8.53795H8.80762V9.51935H9.74962Z" fill="black" stroke="black" stroke-width="0.5"/>
<path d="M17.1778 10.2501V8.98688H15.9653V10.2501H17.1778Z" fill="black" stroke="black" stroke-width="0.5"/>
<path d="M2.71185 10.2501V8.98688H3.92432V10.2501H2.71185Z" fill="black" stroke="black" stroke-width="0.5"/>
<path d="M18.338 8.98705V7.72388H17.1255V8.98705H18.338Z" fill="black" stroke="black" stroke-width="0.5"/>
<path d="M1.55169 8.98705V7.72388H2.76416V8.98705H1.55169Z" fill="black" stroke="black" stroke-width="0.5"/>
<path d="M19.6397 7.72387V6.46069H18.4272V7.72387H19.6397Z" fill="black" stroke="black" stroke-width="0.5"/>
<path d="M0.249937 7.72387V6.46069H1.4624V7.72387H0.249937Z" fill="black" stroke="black" stroke-width="0.5"/>
<path d="M19.6397 6.46068V5.19751H18.4272V6.46068H19.6397Z" fill="black" stroke="black" stroke-width="0.5"/>
<path d="M0.249937 6.46068V5.19751H1.4624V6.46068H0.249937Z" fill="black" stroke="black" stroke-width="0.5"/>
<path d="M19.6397 5.19744V3.93427H18.4272V5.19744H19.6397Z" fill="black" stroke="black" stroke-width="0.5"/>
<path d="M0.249937 5.19744V3.93427H1.4624V5.19744H0.249937Z" fill="black" stroke="black" stroke-width="0.5"/>
<path d="M19.6397 3.93426V2.67108H18.4272V3.93426H19.6397Z" fill="black" stroke="black" stroke-width="0.5"/>
<path d="M0.249937 3.93426V2.67108H1.4624V3.93426H0.249937Z" fill="black" stroke="black" stroke-width="0.5"/>
<path d="M18.338 2.77648V1.51331H17.1255V2.77648H18.338Z" fill="black" stroke="black" stroke-width="0.5"/>
<path d="M1.55169 2.77648V1.51331H2.76416V2.77648H1.55169Z" fill="black" stroke="black" stroke-width="0.5"/>
<path d="M17.0716 1.51318V0.25H15.8591V1.51318H17.0716Z" fill="black" stroke="black" stroke-width="0.5"/>
<path d="M2.81805 1.51318V0.25H4.03052V1.51318H2.81805Z" fill="black" stroke="black" stroke-width="0.5"/>
</svg>
