<svg width="29" height="16" viewBox="0 0 29 16" fill="none" xmlns="http://www.w3.org/2000/svg">
<path d="M11.192 7.15347V6.17207H10.25V7.15347H11.192Z" fill="black" stroke="black" stroke-width="0.5"/>
<path d="M12.1749 6.21292V5.23152H11.2329V6.21292H12.1749Z" fill="black" stroke="black" stroke-width="0.5"/>
<path d="M11.192 8.09383V7.11243H10.25V8.09383H11.192Z" fill="black" stroke="black" stroke-width="0.5"/>
<path d="M11.192 9.07532V8.09392H10.25V9.07532H11.192Z" fill="black" stroke="black" stroke-width="0.5"/>
<path d="M11.192 10.0567V9.07529H10.25V10.0567H11.192Z" fill="black" stroke="black" stroke-width="0.5"/>
<path d="M12.1749 11.0382V10.0568H11.2329V11.0382H12.1749Z" fill="black" stroke="black" stroke-width="0.5"/>
<path d="M13.1583 12.0193V11.0379H12.2163V12.0193H13.1583Z" fill="black" stroke="black" stroke-width="0.5"/>
<path d="M15.1239 12.0193V11.0379H14.1819V12.0193H15.1239Z" fill="black" stroke="black" stroke-width="0.5"/>
<path d="M16.1063 12.0193V11.0379H15.1643V12.0193H16.1063Z" fill="black" stroke="black" stroke-width="0.5"/>
<path d="M17.0079 11.0382V10.0568H16.0659V11.0382H17.0079Z" fill="black" stroke="black" stroke-width="0.5"/>
<path d="M18.0194 10.0567V9.07529H17.0774V10.0567H18.0194Z" fill="black" stroke="black" stroke-width="0.5"/>
<path d="M18.0194 9.07532V8.09392H17.0774V9.07532H18.0194Z" fill="black" stroke="black" stroke-width="0.5"/>
<path d="M18.0194 8.09383V7.11243H17.0774V8.09383H18.0194Z" fill="black" stroke="black" stroke-width="0.5"/>
<path d="M18.0194 7.1125V6.1311H17.0774V7.1125H18.0194Z" fill="black" stroke="black" stroke-width="0.5"/>
<path d="M17.0079 6.21292V5.23152H16.0659V6.21292H17.0079Z" fill="black" stroke="black" stroke-width="0.5"/>
<path d="M16.0245 5.23141V4.25002H15.0825V5.23141H16.0245Z" fill="black" stroke="black" stroke-width="0.5"/>
<path d="M15.0416 5.23141V4.25002H14.0996V5.23141H15.0416Z" fill="black" stroke="black" stroke-width="0.5"/>
<path d="M14.1407 5.23141V4.25002H13.1987V5.23141H14.1407Z" fill="black" stroke="black" stroke-width="0.5"/>
<path d="M13.1583 5.23141V4.25002H12.2163V5.23141H13.1583Z" fill="black" stroke="black" stroke-width="0.5"/>
<path d="M14.1407 12.0193V11.0379H13.1987V12.0193H14.1407Z" fill="black" stroke="black" stroke-width="0.5"/>
<path d="M21.5689 12.7501V11.4869H20.3564V12.7501H21.5689Z" fill="black" stroke="black" stroke-width="0.5"/>
<path d="M7.10296 12.7501V11.4869H8.31543V12.7501H7.10296Z" fill="black" stroke="black" stroke-width="0.5"/>
<path d="M24.7276 15.25V13.3552H22.9089V15.25H24.7276Z" fill="black" stroke="black" stroke-width="0.5"/>
<path d="M3.94424 15.25V13.3552H5.76294V15.25H3.94424Z" fill="black" stroke="black" stroke-width="0.5"/>
<path d="M22.7291 11.4871V10.2239H21.5166V11.4871H22.7291Z" fill="black" stroke="black" stroke-width="0.5"/>
<path d="M5.94281 11.4871V10.2239H7.15527V11.4871H5.94281Z" fill="black" stroke="black" stroke-width="0.5"/>
<path d="M26.4671 13.3556V11.4609H24.6484V13.3556H26.4671Z" fill="black" stroke="black" stroke-width="0.5"/>
<path d="M2.20473 13.3556V11.4609H4.02344V13.3556H2.20473Z" fill="black" stroke="black" stroke-width="0.5"/>
<path d="M24.0308 10.2239V8.96069H22.8184V10.2239H24.0308Z" fill="black" stroke="black" stroke-width="0.5"/>
<path d="M4.64105 10.2239V8.96069H5.85352V10.2239H4.64105Z" fill="black" stroke="black" stroke-width="0.5"/>
<path d="M28.422 11.4607V9.56598H26.6033V11.4607H28.422Z" fill="black" stroke="black" stroke-width="0.5"/>
<path d="M0.2499 11.4607V9.56598H2.0686V11.4607H0.2499Z" fill="black" stroke="black" stroke-width="0.5"/>
<path d="M24.0308 8.96068V7.69751H22.8184V8.96068H24.0308Z" fill="black" stroke="black" stroke-width="0.5"/>
<path d="M4.64105 8.96068V7.69751H5.85352V8.96068H4.64105Z" fill="black" stroke="black" stroke-width="0.5"/>
<path d="M28.422 9.56603V7.67126H26.6033V9.56603H28.422Z" fill="black" stroke="black" stroke-width="0.5"/>
<path d="M0.2499 9.56603V7.67126H2.0686V9.56603H0.2499Z" fill="black" stroke="black" stroke-width="0.5"/>
<path d="M24.0308 7.69744V6.43427H22.8184V7.69744H24.0308Z" fill="black" stroke="black" stroke-width="0.5"/>
<path d="M4.64105 7.69744V6.43427H5.85352V7.69744H4.64105Z" fill="black" stroke="black" stroke-width="0.5"/>
<path d="M28.422 7.6712V5.77643H26.6033V7.6712H28.422Z" fill="black" stroke="black" stroke-width="0.5"/>
<path d="M0.2499 7.6712V5.77643H2.0686V7.6712H0.2499Z" fill="black" stroke="black" stroke-width="0.5"/>
<path d="M24.0308 6.43426V5.17108H22.8184V6.43426H24.0308Z" fill="black" stroke="black" stroke-width="0.5"/>
<path d="M4.64105 6.43426V5.17108H5.85352V6.43426H4.64105Z" fill="black" stroke="black" stroke-width="0.5"/>
<path d="M28.422 5.77648V3.88171H26.6033V5.77648H28.422Z" fill="black" stroke="black" stroke-width="0.5"/>
<path d="M0.2499 5.77648V3.88171H2.0686V5.77648H0.2499Z" fill="black" stroke="black" stroke-width="0.5"/>
<path d="M22.7291 5.27648V4.01331H21.5166V5.27648H22.7291Z" fill="black" stroke="black" stroke-width="0.5"/>
<path d="M5.94281 5.27648V4.01331H7.15527V5.27648H5.94281Z" fill="black" stroke="black" stroke-width="0.5"/>
<path d="M26.4671 4.03973V2.14496H24.6484V4.03973H26.4671Z" fill="black" stroke="black" stroke-width="0.5"/>
<path d="M2.20473 4.03973V2.14496H4.02344V4.03973H2.20473Z" fill="black" stroke="black" stroke-width="0.5"/>
<path d="M21.4627 4.01318V2.75H20.2502V4.01318H21.4627Z" fill="black" stroke="black" stroke-width="0.5"/>
<path d="M7.20917 4.01318V2.75H8.42163V4.01318H7.20917Z" fill="black" stroke="black" stroke-width="0.5"/>
<path d="M24.5694 2.14477V0.25H22.7507V2.14477H24.5694Z" fill="black" stroke="black" stroke-width="0.5"/>
<path d="M4.10244 2.14477V0.25H5.92114V2.14477H4.10244Z" fill="black" stroke="black" stroke-width="0.5"/>
</svg>
