<svg width="43" height="20" viewBox="0 0 43 20" fill="none" xmlns="http://www.w3.org/2000/svg">
<path d="M18.192 10.1535V9.17207H17.25V10.1535H18.192Z" fill="black" stroke="black" stroke-width="0.5"/>
<path d="M19.1749 9.21292V8.23152H18.2329V9.21292H19.1749Z" fill="black" stroke="black" stroke-width="0.5"/>
<path d="M18.192 11.0938V10.1124H17.25V11.0938H18.192Z" fill="black" stroke="black" stroke-width="0.5"/>
<path d="M18.192 12.0753V11.0939H17.25V12.0753H18.192Z" fill="black" stroke="black" stroke-width="0.5"/>
<path d="M18.192 13.0567V12.0753H17.25V13.0567H18.192Z" fill="black" stroke="black" stroke-width="0.5"/>
<path d="M19.1749 14.0382V13.0568H18.2329V14.0382H19.1749Z" fill="black" stroke="black" stroke-width="0.5"/>
<path d="M20.1583 15.0193V14.0379H19.2163V15.0193H20.1583Z" fill="black" stroke="black" stroke-width="0.5"/>
<path d="M22.1239 15.0193V14.0379H21.1819V15.0193H22.1239Z" fill="black" stroke="black" stroke-width="0.5"/>
<path d="M23.1063 15.0193V14.0379H22.1643V15.0193H23.1063Z" fill="black" stroke="black" stroke-width="0.5"/>
<path d="M24.0079 14.0382V13.0568H23.0659V14.0382H24.0079Z" fill="black" stroke="black" stroke-width="0.5"/>
<path d="M25.0194 13.0567V12.0753H24.0774V13.0567H25.0194Z" fill="black" stroke="black" stroke-width="0.5"/>
<path d="M25.0194 12.0753V11.0939H24.0774V12.0753H25.0194Z" fill="black" stroke="black" stroke-width="0.5"/>
<path d="M25.0194 11.0938V10.1124H24.0774V11.0938H25.0194Z" fill="black" stroke="black" stroke-width="0.5"/>
<path d="M25.0194 10.1125V9.1311H24.0774V10.1125H25.0194Z" fill="black" stroke="black" stroke-width="0.5"/>
<path d="M24.0079 9.21292V8.23152H23.0659V9.21292H24.0079Z" fill="black" stroke="black" stroke-width="0.5"/>
<path d="M23.0245 8.23141V7.25002H22.0825V8.23141H23.0245Z" fill="black" stroke="black" stroke-width="0.5"/>
<path d="M22.0416 8.23141V7.25002H21.0996V8.23141H22.0416Z" fill="black" stroke="black" stroke-width="0.5"/>
<path d="M21.1407 8.23141V7.25002H20.1987V8.23141H21.1407Z" fill="black" stroke="black" stroke-width="0.5"/>
<path d="M20.1583 8.23141V7.25002H19.2163V8.23141H20.1583Z" fill="black" stroke="black" stroke-width="0.5"/>
<path d="M21.1407 15.0193V14.0379H20.1987V15.0193H21.1407Z" fill="black" stroke="black" stroke-width="0.5"/>
<path d="M28.5689 15.7501V14.4869H27.3564V15.7501H28.5689Z" fill="black" stroke="black" stroke-width="0.5"/>
<path d="M14.103 15.7501V14.4869H15.3154V15.7501H14.103Z" fill="black" stroke="black" stroke-width="0.5"/>
<path d="M31.7276 18.25V16.3552H29.9089V18.25H31.7276Z" fill="black" stroke="black" stroke-width="0.5"/>
<path d="M37.7669 19.347V16.9347H35.4514V19.347H37.7669Z" fill="black" stroke="black" stroke-width="0.5"/>
<path d="M10.9442 18.25V16.3552H12.7629V18.25H10.9442Z" fill="black" stroke="black" stroke-width="0.5"/>
<path d="M29.7291 14.4871V13.2239H28.5166V14.4871H29.7291Z" fill="black" stroke="black" stroke-width="0.5"/>
<path d="M12.9428 14.4871V13.2239H14.1553V14.4871H12.9428Z" fill="black" stroke="black" stroke-width="0.5"/>
<path d="M33.4671 16.3556V14.4609H31.6484V16.3556H33.4671Z" fill="black" stroke="black" stroke-width="0.5"/>
<path d="M39.9815 16.9352V14.5229H37.666V16.9352H39.9815Z" fill="black" stroke="black" stroke-width="0.5"/>
<path d="M9.20473 16.3556V14.4609H11.0234V16.3556H9.20473Z" fill="black" stroke="black" stroke-width="0.5"/>
<path d="M31.0308 13.2239V11.9607H29.8184V13.2239H31.0308Z" fill="black" stroke="black" stroke-width="0.5"/>
<path d="M11.641 13.2239V11.9607H12.8535V13.2239H11.641Z" fill="black" stroke="black" stroke-width="0.5"/>
<path d="M35.422 14.4607V12.566H33.6033V14.4607H35.422Z" fill="black" stroke="black" stroke-width="0.5"/>
<path d="M42.4702 14.5228V12.1105H40.1548V14.5228H42.4702Z" fill="black" stroke="black" stroke-width="0.5"/>
<path d="M7.2499 14.4607V12.566H9.0686V14.4607H7.2499Z" fill="black" stroke="black" stroke-width="0.5"/>
<path d="M31.0308 11.9607V10.6975H29.8184V11.9607H31.0308Z" fill="black" stroke="black" stroke-width="0.5"/>
<path d="M11.641 11.9607V10.6975H12.8535V11.9607H11.641Z" fill="black" stroke="black" stroke-width="0.5"/>
<path d="M35.422 12.566V10.6713H33.6033V12.566H35.422Z" fill="black" stroke="black" stroke-width="0.5"/>
<path d="M42.4702 12.1105V9.69824H40.1548V12.1105H42.4702Z" fill="black" stroke="black" stroke-width="0.5"/>
<path d="M7.2499 12.566V10.6713H9.0686V12.566H7.2499Z" fill="black" stroke="black" stroke-width="0.5"/>
<path d="M31.0308 10.6974V9.43427H29.8184V10.6974H31.0308Z" fill="black" stroke="black" stroke-width="0.5"/>
<path d="M11.641 10.6974V9.43427H12.8535V10.6974H11.641Z" fill="black" stroke="black" stroke-width="0.5"/>
<path d="M35.422 10.6712V8.77643H33.6033V10.6712H35.422Z" fill="black" stroke="black" stroke-width="0.5"/>
<path d="M42.4702 9.69811V7.28583H40.1548V9.69811H42.4702Z" fill="black" stroke="black" stroke-width="0.5"/>
<path d="M7.2499 10.6712V8.77643H9.0686V10.6712H7.2499Z" fill="black" stroke="black" stroke-width="0.5"/>
<path d="M31.0308 9.43426V8.17108H29.8184V9.43426H31.0308Z" fill="black" stroke="black" stroke-width="0.5"/>
<path d="M11.641 9.43426V8.17108H12.8535V9.43426H11.641Z" fill="black" stroke="black" stroke-width="0.5"/>
<path d="M35.422 8.77648V6.88171H33.6033V8.77648H35.422Z" fill="black" stroke="black" stroke-width="0.5"/>
<path d="M42.4702 7.286V4.87372H40.1548V7.286H42.4702Z" fill="black" stroke="black" stroke-width="0.5"/>
<path d="M7.2499 8.77648V6.88171H9.0686V8.77648H7.2499Z" fill="black" stroke="black" stroke-width="0.5"/>
<path d="M29.7291 8.27648V7.01331H28.5166V8.27648H29.7291Z" fill="black" stroke="black" stroke-width="0.5"/>
<path d="M12.9428 8.27648V7.01331H14.1553V8.27648H12.9428Z" fill="black" stroke="black" stroke-width="0.5"/>
<path d="M33.4671 7.03973V5.14496H31.6484V7.03973H33.4671Z" fill="black" stroke="black" stroke-width="0.5"/>
<path d="M39.9815 5.07482V2.66254H37.666V5.07482H39.9815Z" fill="black" stroke="black" stroke-width="0.5"/>
<path d="M9.20473 7.03973V5.14496H11.0234V7.03973H9.20473Z" fill="black" stroke="black" stroke-width="0.5"/>
<path d="M28.4627 7.01318V5.75H27.2502V7.01318H28.4627Z" fill="black" stroke="black" stroke-width="0.5"/>
<path d="M14.2092 7.01318V5.75H15.4216V7.01318H14.2092Z" fill="black" stroke="black" stroke-width="0.5"/>
<path d="M31.5694 5.14477V3.25H29.7507V5.14477H31.5694Z" fill="black" stroke="black" stroke-width="0.5"/>
<path d="M37.5654 2.66228V0.25H35.25V2.66228H37.5654Z" fill="black" stroke="black" stroke-width="0.5"/>
<path d="M4.9536 19.347V16.9347H7.26904V19.347H4.9536Z" fill="black" stroke="black" stroke-width="0.5"/>
<path d="M2.73876 16.9352V14.5229H5.0542V16.9352H2.73876Z" fill="black" stroke="black" stroke-width="0.5"/>
<path d="M0.249988 14.5228V12.1105H2.56543V14.5228H0.249988Z" fill="black" stroke="black" stroke-width="0.5"/>
<path d="M0.249988 12.1105V9.69824H2.56543V12.1105H0.249988Z" fill="black" stroke="black" stroke-width="0.5"/>
<path d="M0.249988 9.69811V7.28583H2.56543V9.69811H0.249988Z" fill="black" stroke="black" stroke-width="0.5"/>
<path d="M0.249988 7.286V4.87372H2.56543V7.286H0.249988Z" fill="black" stroke="black" stroke-width="0.5"/>
<path d="M2.73876 5.07482V2.66254H5.0542V5.07482H2.73876Z" fill="black" stroke="black" stroke-width="0.5"/>
<path d="M5.15477 2.66228V0.25H7.47021V2.66228H5.15477Z" fill="black" stroke="black" stroke-width="0.5"/>
<path d="M11.1024 5.14477V3.25H12.9211V5.14477H11.1024Z" fill="black" stroke="black" stroke-width="0.5"/>
</svg>
