<svg width="25" height="25" viewBox="0 0 25 25" fill="none" xmlns="http://www.w3.org/2000/svg">
<path d="M15.625 13.542H13.542V22.917H11.458V13.542H9.375V7.29199H15.625V13.542ZM5.20801 18.75H3.125V16.667H5.20801V18.75ZM21.875 18.75H19.792V16.667H21.875V18.75ZM3.125 16.667H1.04199V4.16699H3.125V16.667ZM9.375 16.667H7.29199V14.583H9.375V16.667ZM17.708 16.667H15.625V14.583H17.708V16.667ZM23.958 16.667H21.875V4.16699H23.958V16.667ZM7.29199 14.583H5.20801V6.25H7.29199V14.583ZM19.792 14.583H17.708V6.25H19.792V14.583ZM11.458 11.458H13.542V9.375H11.458V11.458ZM9.375 6.25H7.29199V4.16699H9.375V6.25ZM17.708 6.25H15.625V4.16699H17.708V6.25ZM5.20801 4.16699H3.125V2.08301H5.20801V4.16699ZM21.875 4.16699H19.792V2.08301H21.875V4.16699Z" fill="black"/>
</svg>
