<svg width="20" height="20" viewBox="0 0 20 20" fill="none" xmlns="http://www.w3.org/2000/svg">
<path d="M10.8335 6.66638L9.1665 6.66638L9.1665 8.33337L10.8335 8.33337L10.8335 6.66638ZM9.1665 8.33337L7.50049 8.33337L7.50049 10.0004L9.1665 10.0004L9.1665 8.33337ZM12.4995 8.33337L10.8335 8.33337L10.8335 10.0004L12.4995 10.0004L12.4995 8.33337ZM7.49951 10.0004L5.8335 10.0004L5.8335 11.6664L7.49951 11.6664L7.49951 10.0004ZM14.1665 10.0004L12.5005 10.0004L12.5005 11.6664L14.1665 11.6664L14.1665 10.0004ZM5.8335 11.6664L4.1665 11.6664L4.1665 13.3334L5.8335 13.3334L5.8335 11.6664ZM15.8335 11.6664L14.1665 11.6664L14.1665 13.3334L15.8335 13.3334L15.8335 11.6664Z" fill="black"/>
</svg>
